<mxfile host="app.diagrams.net" modified="2024-03-22T20:22:02.997Z" agent="Mozilla/5.0 (Windows NT 10.0; Win64; x64) AppleWebKit/537.36 (KHTML, like Gecko) Chrome/123.0.0.0 Safari/537.36" etag="FNrZMAgkT1hFbjRu9nkQ" version="24.0.7" type="github" pages="30">
  <diagram name="Etapa 1" id="b-Zsi-KvTtzr1YMQD1kL">
    <mxGraphModel dx="1434" dy="786" grid="1" gridSize="10" guides="1" tooltips="1" connect="1" arrows="1" fold="1" page="1" pageScale="1" pageWidth="827" pageHeight="1169" math="0" shadow="0">
      <root>
        <mxCell id="0" />
        <mxCell id="1" parent="0" />
        <mxCell id="2MiHeWQtISFyMvN5gHQJ-1" value="&lt;b&gt;&lt;font style=&quot;font-size: 16px;&quot;&gt;TOPO&lt;/font&gt;&lt;/b&gt;" style="text;html=1;align=center;verticalAlign=middle;whiteSpace=wrap;rounded=0;" vertex="1" parent="1">
          <mxGeometry x="360" y="80" width="120" height="40" as="geometry" />
        </mxCell>
        <mxCell id="2MiHeWQtISFyMvN5gHQJ-2" value="" style="endArrow=classic;html=1;rounded=0;exitX=0.5;exitY=1;exitDx=0;exitDy=0;" edge="1" parent="1">
          <mxGeometry width="50" height="50" relative="1" as="geometry">
            <mxPoint x="419.5" y="120" as="sourcePoint" />
            <mxPoint x="420" y="170" as="targetPoint" />
          </mxGeometry>
        </mxCell>
        <mxCell id="2MiHeWQtISFyMvN5gHQJ-3" value="" style="endArrow=none;html=1;rounded=0;" edge="1" parent="1">
          <mxGeometry width="50" height="50" relative="1" as="geometry">
            <mxPoint x="360" y="200" as="sourcePoint" />
            <mxPoint x="480" y="200" as="targetPoint" />
            <Array as="points">
              <mxPoint x="420" y="200" />
            </Array>
          </mxGeometry>
        </mxCell>
        <mxCell id="2MiHeWQtISFyMvN5gHQJ-4" value="" style="endArrow=none;html=1;rounded=0;" edge="1" parent="1">
          <mxGeometry width="50" height="50" relative="1" as="geometry">
            <mxPoint x="380" y="220" as="sourcePoint" />
            <mxPoint x="460" y="220" as="targetPoint" />
            <Array as="points" />
          </mxGeometry>
        </mxCell>
        <mxCell id="2MiHeWQtISFyMvN5gHQJ-7" value="" style="endArrow=none;html=1;rounded=0;strokeColor=#ADADAD;" edge="1" parent="1">
          <mxGeometry width="50" height="50" relative="1" as="geometry">
            <mxPoint x="400" y="240" as="sourcePoint" />
            <mxPoint x="440" y="240" as="targetPoint" />
            <Array as="points">
              <mxPoint x="420" y="240" />
              <mxPoint x="440" y="240" />
            </Array>
          </mxGeometry>
        </mxCell>
      </root>
    </mxGraphModel>
  </diagram>
  <diagram name="Etapa 2.1" id="vD7S38e9Kv_sXOVsF8Mz">
    <mxGraphModel dx="1434" dy="786" grid="1" gridSize="10" guides="1" tooltips="1" connect="1" arrows="1" fold="1" page="1" pageScale="1" pageWidth="827" pageHeight="1169" math="0" shadow="0">
      <root>
        <mxCell id="PjUmKFmMXjpmOBCta_kU-0" />
        <mxCell id="PjUmKFmMXjpmOBCta_kU-1" parent="PjUmKFmMXjpmOBCta_kU-0" />
        <mxCell id="PjUmKFmMXjpmOBCta_kU-2" value="&lt;b&gt;&lt;font style=&quot;font-size: 16px;&quot;&gt;TOPO&lt;/font&gt;&lt;/b&gt;" style="text;html=1;align=center;verticalAlign=middle;whiteSpace=wrap;rounded=0;" vertex="1" parent="PjUmKFmMXjpmOBCta_kU-1">
          <mxGeometry x="360" y="80" width="120" height="40" as="geometry" />
        </mxCell>
        <mxCell id="PjUmKFmMXjpmOBCta_kU-3" value="" style="endArrow=classic;html=1;rounded=0;exitX=0.5;exitY=1;exitDx=0;exitDy=0;" edge="1" parent="PjUmKFmMXjpmOBCta_kU-1">
          <mxGeometry width="50" height="50" relative="1" as="geometry">
            <mxPoint x="419.5" y="120" as="sourcePoint" />
            <mxPoint x="420" y="170" as="targetPoint" />
          </mxGeometry>
        </mxCell>
        <mxCell id="PjUmKFmMXjpmOBCta_kU-4" value="" style="endArrow=none;html=1;rounded=0;" edge="1" parent="PjUmKFmMXjpmOBCta_kU-1">
          <mxGeometry width="50" height="50" relative="1" as="geometry">
            <mxPoint x="360" y="200" as="sourcePoint" />
            <mxPoint x="480" y="200" as="targetPoint" />
            <Array as="points">
              <mxPoint x="420" y="200" />
            </Array>
          </mxGeometry>
        </mxCell>
        <mxCell id="PjUmKFmMXjpmOBCta_kU-5" value="" style="endArrow=none;html=1;rounded=0;" edge="1" parent="PjUmKFmMXjpmOBCta_kU-1">
          <mxGeometry width="50" height="50" relative="1" as="geometry">
            <mxPoint x="380" y="220" as="sourcePoint" />
            <mxPoint x="460" y="220" as="targetPoint" />
            <Array as="points" />
          </mxGeometry>
        </mxCell>
        <mxCell id="PjUmKFmMXjpmOBCta_kU-6" value="" style="endArrow=none;html=1;rounded=0;strokeColor=#ADADAD;" edge="1" parent="PjUmKFmMXjpmOBCta_kU-1">
          <mxGeometry width="50" height="50" relative="1" as="geometry">
            <mxPoint x="400" y="240" as="sourcePoint" />
            <mxPoint x="440" y="240" as="targetPoint" />
            <Array as="points">
              <mxPoint x="420" y="240" />
              <mxPoint x="440" y="240" />
            </Array>
          </mxGeometry>
        </mxCell>
        <mxCell id="0N0Z4QdZ7B8W0GaRzwel-0" value="&lt;font style=&quot;font-size: 16px;&quot;&gt;&lt;b&gt;?&lt;/b&gt;&lt;/font&gt;" style="whiteSpace=wrap;html=1;aspect=fixed;" vertex="1" parent="PjUmKFmMXjpmOBCta_kU-1">
          <mxGeometry x="600" y="110" width="80" height="80" as="geometry" />
        </mxCell>
        <mxCell id="0N0Z4QdZ7B8W0GaRzwel-1" value="" style="endArrow=classic;html=1;rounded=0;exitX=0.5;exitY=1;exitDx=0;exitDy=0;" edge="1" parent="PjUmKFmMXjpmOBCta_kU-1" source="0N0Z4QdZ7B8W0GaRzwel-0">
          <mxGeometry width="50" height="50" relative="1" as="geometry">
            <mxPoint x="390" y="430" as="sourcePoint" />
            <mxPoint x="640" y="250" as="targetPoint" />
          </mxGeometry>
        </mxCell>
        <mxCell id="0N0Z4QdZ7B8W0GaRzwel-2" value="" style="endArrow=none;html=1;rounded=0;" edge="1" parent="PjUmKFmMXjpmOBCta_kU-1">
          <mxGeometry width="50" height="50" relative="1" as="geometry">
            <mxPoint x="720" y="280" as="sourcePoint" />
            <mxPoint x="560" y="280" as="targetPoint" />
          </mxGeometry>
        </mxCell>
        <mxCell id="0N0Z4QdZ7B8W0GaRzwel-3" value="" style="endArrow=none;html=1;rounded=0;" edge="1" parent="PjUmKFmMXjpmOBCta_kU-1">
          <mxGeometry width="50" height="50" relative="1" as="geometry">
            <mxPoint x="580" y="300" as="sourcePoint" />
            <mxPoint x="700" y="300" as="targetPoint" />
          </mxGeometry>
        </mxCell>
        <mxCell id="0N0Z4QdZ7B8W0GaRzwel-4" value="" style="endArrow=none;html=1;rounded=0;strokeColor=#ADADAD;" edge="1" parent="PjUmKFmMXjpmOBCta_kU-1">
          <mxGeometry width="50" height="50" relative="1" as="geometry">
            <mxPoint x="660" y="320" as="sourcePoint" />
            <mxPoint x="620" y="320" as="targetPoint" />
          </mxGeometry>
        </mxCell>
      </root>
    </mxGraphModel>
  </diagram>
  <diagram name="Etapa 2.2" id="LdvBw69vkHsnHJyoksAK">
    <mxGraphModel dx="1434" dy="786" grid="1" gridSize="10" guides="1" tooltips="1" connect="1" arrows="1" fold="1" page="1" pageScale="1" pageWidth="827" pageHeight="1169" math="0" shadow="0">
      <root>
        <mxCell id="RSBq1EaiCeqbOzNhYX9_-0" />
        <mxCell id="RSBq1EaiCeqbOzNhYX9_-1" parent="RSBq1EaiCeqbOzNhYX9_-0" />
        <mxCell id="RSBq1EaiCeqbOzNhYX9_-2" value="&lt;b&gt;&lt;font style=&quot;font-size: 16px;&quot;&gt;TOPO&lt;/font&gt;&lt;/b&gt;" style="text;html=1;align=center;verticalAlign=middle;whiteSpace=wrap;rounded=0;" vertex="1" parent="RSBq1EaiCeqbOzNhYX9_-1">
          <mxGeometry x="360" y="80" width="120" height="40" as="geometry" />
        </mxCell>
        <mxCell id="RSBq1EaiCeqbOzNhYX9_-3" value="" style="endArrow=classic;html=1;rounded=0;exitX=0.5;exitY=1;exitDx=0;exitDy=0;" edge="1" parent="RSBq1EaiCeqbOzNhYX9_-1">
          <mxGeometry width="50" height="50" relative="1" as="geometry">
            <mxPoint x="419.5" y="120" as="sourcePoint" />
            <mxPoint x="420" y="170" as="targetPoint" />
          </mxGeometry>
        </mxCell>
        <mxCell id="RSBq1EaiCeqbOzNhYX9_-4" value="" style="endArrow=none;html=1;rounded=0;" edge="1" parent="RSBq1EaiCeqbOzNhYX9_-1">
          <mxGeometry width="50" height="50" relative="1" as="geometry">
            <mxPoint x="360" y="200" as="sourcePoint" />
            <mxPoint x="480" y="200" as="targetPoint" />
            <Array as="points">
              <mxPoint x="420" y="200" />
            </Array>
          </mxGeometry>
        </mxCell>
        <mxCell id="RSBq1EaiCeqbOzNhYX9_-5" value="" style="endArrow=none;html=1;rounded=0;" edge="1" parent="RSBq1EaiCeqbOzNhYX9_-1">
          <mxGeometry width="50" height="50" relative="1" as="geometry">
            <mxPoint x="380" y="220" as="sourcePoint" />
            <mxPoint x="460" y="220" as="targetPoint" />
            <Array as="points">
              <mxPoint x="420" y="220" />
            </Array>
          </mxGeometry>
        </mxCell>
        <mxCell id="RSBq1EaiCeqbOzNhYX9_-6" value="" style="endArrow=none;html=1;rounded=0;strokeColor=#ADADAD;" edge="1" parent="RSBq1EaiCeqbOzNhYX9_-1">
          <mxGeometry width="50" height="50" relative="1" as="geometry">
            <mxPoint x="400" y="240" as="sourcePoint" />
            <mxPoint x="440" y="240" as="targetPoint" />
            <Array as="points">
              <mxPoint x="420" y="240" />
            </Array>
          </mxGeometry>
        </mxCell>
        <mxCell id="RSBq1EaiCeqbOzNhYX9_-7" value="&lt;font style=&quot;font-size: 16px;&quot;&gt;&lt;b&gt;?&lt;/b&gt;&lt;/font&gt;" style="whiteSpace=wrap;html=1;aspect=fixed;" vertex="1" parent="RSBq1EaiCeqbOzNhYX9_-1">
          <mxGeometry x="580" y="40" width="80" height="80" as="geometry" />
        </mxCell>
        <mxCell id="RSBq1EaiCeqbOzNhYX9_-8" value="" style="endArrow=classic;html=1;rounded=0;exitX=0.5;exitY=1;exitDx=0;exitDy=0;" edge="1" parent="RSBq1EaiCeqbOzNhYX9_-1" source="RSBq1EaiCeqbOzNhYX9_-7">
          <mxGeometry width="50" height="50" relative="1" as="geometry">
            <mxPoint x="400" y="360" as="sourcePoint" />
            <mxPoint x="450" y="200" as="targetPoint" />
          </mxGeometry>
        </mxCell>
      </root>
    </mxGraphModel>
  </diagram>
  <diagram name="Etapa 2.3" id="uJPmKGXloqs4DzWxsDrM">
    <mxGraphModel dx="1434" dy="786" grid="1" gridSize="10" guides="1" tooltips="1" connect="1" arrows="1" fold="1" page="1" pageScale="1" pageWidth="827" pageHeight="1169" math="0" shadow="0">
      <root>
        <mxCell id="p7zGhJsh0TcucVRcCE9n-0" />
        <mxCell id="p7zGhJsh0TcucVRcCE9n-1" parent="p7zGhJsh0TcucVRcCE9n-0" />
        <mxCell id="p7zGhJsh0TcucVRcCE9n-2" value="&lt;b&gt;&lt;font style=&quot;font-size: 16px;&quot;&gt;TOPO&lt;/font&gt;&lt;/b&gt;" style="text;html=1;align=center;verticalAlign=middle;whiteSpace=wrap;rounded=0;" vertex="1" parent="p7zGhJsh0TcucVRcCE9n-1">
          <mxGeometry x="360" y="80" width="120" height="40" as="geometry" />
        </mxCell>
        <mxCell id="p7zGhJsh0TcucVRcCE9n-3" value="" style="endArrow=classic;html=1;rounded=0;exitX=0.5;exitY=1;exitDx=0;exitDy=0;" edge="1" parent="p7zGhJsh0TcucVRcCE9n-1">
          <mxGeometry width="50" height="50" relative="1" as="geometry">
            <mxPoint x="419.5" y="120" as="sourcePoint" />
            <mxPoint x="420" y="170" as="targetPoint" />
          </mxGeometry>
        </mxCell>
        <mxCell id="p7zGhJsh0TcucVRcCE9n-4" value="" style="endArrow=none;html=1;rounded=0;" edge="1" parent="p7zGhJsh0TcucVRcCE9n-1">
          <mxGeometry width="50" height="50" relative="1" as="geometry">
            <mxPoint x="360" y="320" as="sourcePoint" />
            <mxPoint x="480" y="320" as="targetPoint" />
            <Array as="points">
              <mxPoint x="420" y="320" />
            </Array>
          </mxGeometry>
        </mxCell>
        <mxCell id="p7zGhJsh0TcucVRcCE9n-5" value="" style="endArrow=none;html=1;rounded=0;" edge="1" parent="p7zGhJsh0TcucVRcCE9n-1">
          <mxGeometry width="50" height="50" relative="1" as="geometry">
            <mxPoint x="380" y="340" as="sourcePoint" />
            <mxPoint x="460" y="340" as="targetPoint" />
            <Array as="points">
              <mxPoint x="420" y="340" />
            </Array>
          </mxGeometry>
        </mxCell>
        <mxCell id="p7zGhJsh0TcucVRcCE9n-6" value="" style="endArrow=none;html=1;rounded=0;strokeColor=#ADADAD;" edge="1" parent="p7zGhJsh0TcucVRcCE9n-1">
          <mxGeometry width="50" height="50" relative="1" as="geometry">
            <mxPoint x="400" y="360" as="sourcePoint" />
            <mxPoint x="440" y="360" as="targetPoint" />
            <Array as="points">
              <mxPoint x="420" y="360" />
            </Array>
          </mxGeometry>
        </mxCell>
        <mxCell id="p7zGhJsh0TcucVRcCE9n-7" value="&lt;font style=&quot;font-size: 16px;&quot;&gt;&lt;b&gt;?&lt;/b&gt;&lt;/font&gt;" style="whiteSpace=wrap;html=1;aspect=fixed;" vertex="1" parent="p7zGhJsh0TcucVRcCE9n-1">
          <mxGeometry x="380" y="190" width="80" height="80" as="geometry" />
        </mxCell>
        <mxCell id="p7zGhJsh0TcucVRcCE9n-8" value="" style="endArrow=classic;html=1;rounded=0;exitX=0.5;exitY=1;exitDx=0;exitDy=0;" edge="1" parent="p7zGhJsh0TcucVRcCE9n-1" source="p7zGhJsh0TcucVRcCE9n-7">
          <mxGeometry width="50" height="50" relative="1" as="geometry">
            <mxPoint x="400" y="360" as="sourcePoint" />
            <mxPoint x="420" y="310" as="targetPoint" />
          </mxGeometry>
        </mxCell>
      </root>
    </mxGraphModel>
  </diagram>
  <diagram name="Etapa 3.1" id="fvrWbe9PbDoPuRJnX1zE">
    <mxGraphModel dx="1434" dy="786" grid="1" gridSize="10" guides="1" tooltips="1" connect="1" arrows="1" fold="1" page="1" pageScale="1" pageWidth="827" pageHeight="1169" math="0" shadow="0">
      <root>
        <mxCell id="UYuYfTajWpflbsekQ0Za-0" />
        <mxCell id="UYuYfTajWpflbsekQ0Za-1" parent="UYuYfTajWpflbsekQ0Za-0" />
        <mxCell id="UYuYfTajWpflbsekQ0Za-2" value="&lt;b&gt;&lt;font style=&quot;font-size: 16px;&quot;&gt;TOPO&lt;/font&gt;&lt;/b&gt;" style="text;html=1;align=center;verticalAlign=middle;whiteSpace=wrap;rounded=0;" vertex="1" parent="UYuYfTajWpflbsekQ0Za-1">
          <mxGeometry x="360" y="80" width="120" height="40" as="geometry" />
        </mxCell>
        <mxCell id="UYuYfTajWpflbsekQ0Za-3" value="" style="endArrow=classic;html=1;rounded=0;exitX=0.5;exitY=1;exitDx=0;exitDy=0;" edge="1" parent="UYuYfTajWpflbsekQ0Za-1">
          <mxGeometry width="50" height="50" relative="1" as="geometry">
            <mxPoint x="419.5" y="120" as="sourcePoint" />
            <mxPoint x="420" y="170" as="targetPoint" />
          </mxGeometry>
        </mxCell>
        <mxCell id="UYuYfTajWpflbsekQ0Za-4" value="" style="endArrow=none;html=1;rounded=0;" edge="1" parent="UYuYfTajWpflbsekQ0Za-1">
          <mxGeometry width="50" height="50" relative="1" as="geometry">
            <mxPoint x="360" y="320" as="sourcePoint" />
            <mxPoint x="480" y="320" as="targetPoint" />
            <Array as="points">
              <mxPoint x="420" y="320" />
            </Array>
          </mxGeometry>
        </mxCell>
        <mxCell id="UYuYfTajWpflbsekQ0Za-5" value="" style="endArrow=none;html=1;rounded=0;" edge="1" parent="UYuYfTajWpflbsekQ0Za-1">
          <mxGeometry width="50" height="50" relative="1" as="geometry">
            <mxPoint x="380" y="340" as="sourcePoint" />
            <mxPoint x="460" y="340" as="targetPoint" />
            <Array as="points">
              <mxPoint x="420" y="340" />
            </Array>
          </mxGeometry>
        </mxCell>
        <mxCell id="UYuYfTajWpflbsekQ0Za-6" value="" style="endArrow=none;html=1;rounded=0;strokeColor=#ADADAD;" edge="1" parent="UYuYfTajWpflbsekQ0Za-1">
          <mxGeometry width="50" height="50" relative="1" as="geometry">
            <mxPoint x="400" y="360" as="sourcePoint" />
            <mxPoint x="440" y="360" as="targetPoint" />
            <Array as="points">
              <mxPoint x="420" y="360" />
            </Array>
          </mxGeometry>
        </mxCell>
        <mxCell id="UYuYfTajWpflbsekQ0Za-7" value="&lt;font style=&quot;font-size: 16px;&quot;&gt;&lt;b&gt;?&lt;/b&gt;&lt;/font&gt;" style="whiteSpace=wrap;html=1;aspect=fixed;" vertex="1" parent="UYuYfTajWpflbsekQ0Za-1">
          <mxGeometry x="380" y="190" width="80" height="80" as="geometry" />
        </mxCell>
        <mxCell id="UYuYfTajWpflbsekQ0Za-8" value="" style="endArrow=classic;html=1;rounded=0;exitX=0.5;exitY=1;exitDx=0;exitDy=0;" edge="1" parent="UYuYfTajWpflbsekQ0Za-1" source="UYuYfTajWpflbsekQ0Za-7">
          <mxGeometry width="50" height="50" relative="1" as="geometry">
            <mxPoint x="400" y="360" as="sourcePoint" />
            <mxPoint x="420" y="310" as="targetPoint" />
          </mxGeometry>
        </mxCell>
        <mxCell id="Y_JiOHZ7he3razzL4b6e-1" value="" style="endArrow=classic;html=1;rounded=0;exitX=0.5;exitY=1;exitDx=0;exitDy=0;" edge="1" parent="UYuYfTajWpflbsekQ0Za-1">
          <mxGeometry width="50" height="50" relative="1" as="geometry">
            <mxPoint x="640" y="160" as="sourcePoint" />
            <mxPoint x="480" y="230" as="targetPoint" />
          </mxGeometry>
        </mxCell>
        <mxCell id="Y_JiOHZ7he3razzL4b6e-2" value="&lt;font style=&quot;font-size: 16px;&quot;&gt;&lt;b&gt;AUX&lt;/b&gt;&lt;/font&gt;" style="text;html=1;align=center;verticalAlign=middle;whiteSpace=wrap;rounded=0;" vertex="1" parent="UYuYfTajWpflbsekQ0Za-1">
          <mxGeometry x="620" y="130" width="60" height="30" as="geometry" />
        </mxCell>
      </root>
    </mxGraphModel>
  </diagram>
  <diagram name="Etapa 3.2" id="mQohn4_WEEadLeT_qhPW">
    <mxGraphModel dx="1434" dy="786" grid="1" gridSize="10" guides="1" tooltips="1" connect="1" arrows="1" fold="1" page="1" pageScale="1" pageWidth="827" pageHeight="1169" math="0" shadow="0">
      <root>
        <mxCell id="cuzhNggEeigPIbpXA-Xa-0" />
        <mxCell id="cuzhNggEeigPIbpXA-Xa-1" parent="cuzhNggEeigPIbpXA-Xa-0" />
        <mxCell id="cuzhNggEeigPIbpXA-Xa-2" value="&lt;b&gt;&lt;font style=&quot;font-size: 16px;&quot;&gt;TOPO&lt;/font&gt;&lt;/b&gt;" style="text;html=1;align=center;verticalAlign=middle;whiteSpace=wrap;rounded=0;" vertex="1" parent="cuzhNggEeigPIbpXA-Xa-1">
          <mxGeometry x="220" y="200" width="120" height="40" as="geometry" />
        </mxCell>
        <mxCell id="cuzhNggEeigPIbpXA-Xa-3" value="" style="endArrow=classic;html=1;rounded=0;exitX=0.5;exitY=1;exitDx=0;exitDy=0;" edge="1" parent="cuzhNggEeigPIbpXA-Xa-1">
          <mxGeometry width="50" height="50" relative="1" as="geometry">
            <mxPoint x="279.5" y="240" as="sourcePoint" />
            <mxPoint x="370" y="320" as="targetPoint" />
          </mxGeometry>
        </mxCell>
        <mxCell id="cuzhNggEeigPIbpXA-Xa-4" value="" style="endArrow=none;html=1;rounded=0;" edge="1" parent="cuzhNggEeigPIbpXA-Xa-1">
          <mxGeometry width="50" height="50" relative="1" as="geometry">
            <mxPoint x="360" y="320" as="sourcePoint" />
            <mxPoint x="480" y="320" as="targetPoint" />
            <Array as="points">
              <mxPoint x="420" y="320" />
            </Array>
          </mxGeometry>
        </mxCell>
        <mxCell id="cuzhNggEeigPIbpXA-Xa-5" value="" style="endArrow=none;html=1;rounded=0;" edge="1" parent="cuzhNggEeigPIbpXA-Xa-1">
          <mxGeometry width="50" height="50" relative="1" as="geometry">
            <mxPoint x="380" y="340" as="sourcePoint" />
            <mxPoint x="460" y="340" as="targetPoint" />
            <Array as="points">
              <mxPoint x="420" y="340" />
            </Array>
          </mxGeometry>
        </mxCell>
        <mxCell id="cuzhNggEeigPIbpXA-Xa-6" value="" style="endArrow=none;html=1;rounded=0;strokeColor=#ADADAD;" edge="1" parent="cuzhNggEeigPIbpXA-Xa-1">
          <mxGeometry width="50" height="50" relative="1" as="geometry">
            <mxPoint x="400" y="360" as="sourcePoint" />
            <mxPoint x="440" y="360" as="targetPoint" />
            <Array as="points">
              <mxPoint x="420" y="360" />
            </Array>
          </mxGeometry>
        </mxCell>
        <mxCell id="cuzhNggEeigPIbpXA-Xa-7" value="&lt;font style=&quot;font-size: 16px;&quot;&gt;&lt;b&gt;?&lt;/b&gt;&lt;/font&gt;" style="whiteSpace=wrap;html=1;aspect=fixed;" vertex="1" parent="cuzhNggEeigPIbpXA-Xa-1">
          <mxGeometry x="380" y="190" width="80" height="80" as="geometry" />
        </mxCell>
        <mxCell id="cuzhNggEeigPIbpXA-Xa-8" value="" style="endArrow=classic;html=1;rounded=0;exitX=0.5;exitY=1;exitDx=0;exitDy=0;" edge="1" parent="cuzhNggEeigPIbpXA-Xa-1" source="cuzhNggEeigPIbpXA-Xa-7">
          <mxGeometry width="50" height="50" relative="1" as="geometry">
            <mxPoint x="400" y="360" as="sourcePoint" />
            <mxPoint x="420" y="310" as="targetPoint" />
          </mxGeometry>
        </mxCell>
        <mxCell id="cuzhNggEeigPIbpXA-Xa-9" value="" style="endArrow=classic;html=1;rounded=0;exitX=0.5;exitY=1;exitDx=0;exitDy=0;" edge="1" parent="cuzhNggEeigPIbpXA-Xa-1">
          <mxGeometry width="50" height="50" relative="1" as="geometry">
            <mxPoint x="640" y="160" as="sourcePoint" />
            <mxPoint x="480" y="230" as="targetPoint" />
          </mxGeometry>
        </mxCell>
        <mxCell id="cuzhNggEeigPIbpXA-Xa-10" value="&lt;font style=&quot;font-size: 16px;&quot;&gt;&lt;b&gt;AUX&lt;/b&gt;&lt;/font&gt;" style="text;html=1;align=center;verticalAlign=middle;whiteSpace=wrap;rounded=0;" vertex="1" parent="cuzhNggEeigPIbpXA-Xa-1">
          <mxGeometry x="620" y="130" width="60" height="30" as="geometry" />
        </mxCell>
      </root>
    </mxGraphModel>
  </diagram>
  <diagram name="Etapa 3.3" id="vOty0-nr-DgvHZioNERI">
    <mxGraphModel dx="1434" dy="786" grid="1" gridSize="10" guides="1" tooltips="1" connect="1" arrows="1" fold="1" page="1" pageScale="1" pageWidth="827" pageHeight="1169" math="0" shadow="0">
      <root>
        <mxCell id="vFEJQ16PpT5x-R5XQzDQ-0" />
        <mxCell id="vFEJQ16PpT5x-R5XQzDQ-1" parent="vFEJQ16PpT5x-R5XQzDQ-0" />
        <mxCell id="vFEJQ16PpT5x-R5XQzDQ-2" value="&lt;b&gt;&lt;font style=&quot;font-size: 16px;&quot;&gt;TOPO&lt;/font&gt;&lt;/b&gt;" style="text;html=1;align=center;verticalAlign=middle;whiteSpace=wrap;rounded=0;" vertex="1" parent="vFEJQ16PpT5x-R5XQzDQ-1">
          <mxGeometry x="220" y="200" width="120" height="40" as="geometry" />
        </mxCell>
        <mxCell id="vFEJQ16PpT5x-R5XQzDQ-3" value="" style="endArrow=classic;html=1;rounded=0;exitX=0.5;exitY=1;exitDx=0;exitDy=0;" edge="1" parent="vFEJQ16PpT5x-R5XQzDQ-1">
          <mxGeometry width="50" height="50" relative="1" as="geometry">
            <mxPoint x="279.5" y="240" as="sourcePoint" />
            <mxPoint x="370" y="320" as="targetPoint" />
          </mxGeometry>
        </mxCell>
        <mxCell id="vFEJQ16PpT5x-R5XQzDQ-4" value="" style="endArrow=none;html=1;rounded=0;" edge="1" parent="vFEJQ16PpT5x-R5XQzDQ-1">
          <mxGeometry width="50" height="50" relative="1" as="geometry">
            <mxPoint x="360" y="320" as="sourcePoint" />
            <mxPoint x="480" y="320" as="targetPoint" />
            <Array as="points">
              <mxPoint x="420" y="320" />
            </Array>
          </mxGeometry>
        </mxCell>
        <mxCell id="vFEJQ16PpT5x-R5XQzDQ-5" value="" style="endArrow=none;html=1;rounded=0;" edge="1" parent="vFEJQ16PpT5x-R5XQzDQ-1">
          <mxGeometry width="50" height="50" relative="1" as="geometry">
            <mxPoint x="380" y="340" as="sourcePoint" />
            <mxPoint x="460" y="340" as="targetPoint" />
            <Array as="points">
              <mxPoint x="420" y="340" />
            </Array>
          </mxGeometry>
        </mxCell>
        <mxCell id="vFEJQ16PpT5x-R5XQzDQ-6" value="" style="endArrow=none;html=1;rounded=0;strokeColor=#ADADAD;" edge="1" parent="vFEJQ16PpT5x-R5XQzDQ-1">
          <mxGeometry width="50" height="50" relative="1" as="geometry">
            <mxPoint x="400" y="360" as="sourcePoint" />
            <mxPoint x="440" y="360" as="targetPoint" />
            <Array as="points">
              <mxPoint x="420" y="360" />
            </Array>
          </mxGeometry>
        </mxCell>
        <mxCell id="vFEJQ16PpT5x-R5XQzDQ-7" value="&lt;font style=&quot;font-size: 16px;&quot;&gt;&lt;b&gt;?&lt;/b&gt;&lt;/font&gt;" style="whiteSpace=wrap;html=1;aspect=fixed;" vertex="1" parent="vFEJQ16PpT5x-R5XQzDQ-1">
          <mxGeometry x="380" y="190" width="80" height="80" as="geometry" />
        </mxCell>
        <mxCell id="vFEJQ16PpT5x-R5XQzDQ-8" value="" style="endArrow=classic;html=1;rounded=0;exitX=0.5;exitY=1;exitDx=0;exitDy=0;" edge="1" parent="vFEJQ16PpT5x-R5XQzDQ-1" source="vFEJQ16PpT5x-R5XQzDQ-7">
          <mxGeometry width="50" height="50" relative="1" as="geometry">
            <mxPoint x="400" y="360" as="sourcePoint" />
            <mxPoint x="420" y="310" as="targetPoint" />
          </mxGeometry>
        </mxCell>
        <mxCell id="vFEJQ16PpT5x-R5XQzDQ-9" value="" style="endArrow=classic;html=1;rounded=0;exitX=0.5;exitY=1;exitDx=0;exitDy=0;" edge="1" parent="vFEJQ16PpT5x-R5XQzDQ-1">
          <mxGeometry width="50" height="50" relative="1" as="geometry">
            <mxPoint x="640" y="160" as="sourcePoint" />
            <mxPoint x="480" y="230" as="targetPoint" />
          </mxGeometry>
        </mxCell>
        <mxCell id="vFEJQ16PpT5x-R5XQzDQ-10" value="&lt;font style=&quot;font-size: 16px;&quot;&gt;&lt;b&gt;AUX&lt;/b&gt;&lt;/font&gt;" style="text;html=1;align=center;verticalAlign=middle;whiteSpace=wrap;rounded=0;" vertex="1" parent="vFEJQ16PpT5x-R5XQzDQ-1">
          <mxGeometry x="620" y="130" width="60" height="30" as="geometry" />
        </mxCell>
        <mxCell id="zkyTgWOUQDyXzwq09cyX-0" value="" style="shape=cross;whiteSpace=wrap;html=1;rotation=45;fillColor=#F80000;strokeColor=#B80000;" vertex="1" parent="vFEJQ16PpT5x-R5XQzDQ-1">
          <mxGeometry x="380" y="190" width="80" height="80" as="geometry" />
        </mxCell>
      </root>
    </mxGraphModel>
  </diagram>
  <diagram name="Etapa 4.1" id="pUFrgS6Kh40rigMgCIZ5">
    <mxGraphModel dx="1434" dy="786" grid="1" gridSize="10" guides="1" tooltips="1" connect="1" arrows="1" fold="1" page="1" pageScale="1" pageWidth="827" pageHeight="1169" math="0" shadow="0">
      <root>
        <mxCell id="9Zhmse27T_AW59ZkBnsE-0" />
        <mxCell id="9Zhmse27T_AW59ZkBnsE-1" parent="9Zhmse27T_AW59ZkBnsE-0" />
        <mxCell id="9Zhmse27T_AW59ZkBnsE-2" value="&lt;b&gt;&lt;font style=&quot;font-size: 16px;&quot;&gt;TOPO&lt;/font&gt;&lt;/b&gt;" style="text;html=1;align=center;verticalAlign=middle;whiteSpace=wrap;rounded=0;" vertex="1" parent="9Zhmse27T_AW59ZkBnsE-1">
          <mxGeometry x="360" y="205" width="120" height="40" as="geometry" />
        </mxCell>
        <mxCell id="9Zhmse27T_AW59ZkBnsE-3" value="" style="endArrow=classic;html=1;rounded=0;" edge="1" parent="9Zhmse27T_AW59ZkBnsE-1">
          <mxGeometry width="50" height="50" relative="1" as="geometry">
            <mxPoint x="419.5" y="245" as="sourcePoint" />
            <mxPoint x="419.5" y="315" as="targetPoint" />
          </mxGeometry>
        </mxCell>
        <mxCell id="9Zhmse27T_AW59ZkBnsE-4" value="" style="endArrow=none;html=1;rounded=0;" edge="1" parent="9Zhmse27T_AW59ZkBnsE-1">
          <mxGeometry width="50" height="50" relative="1" as="geometry">
            <mxPoint x="360" y="320" as="sourcePoint" />
            <mxPoint x="480" y="320" as="targetPoint" />
            <Array as="points">
              <mxPoint x="420" y="320" />
            </Array>
          </mxGeometry>
        </mxCell>
        <mxCell id="9Zhmse27T_AW59ZkBnsE-5" value="" style="endArrow=none;html=1;rounded=0;" edge="1" parent="9Zhmse27T_AW59ZkBnsE-1">
          <mxGeometry width="50" height="50" relative="1" as="geometry">
            <mxPoint x="380" y="340" as="sourcePoint" />
            <mxPoint x="460" y="340" as="targetPoint" />
            <Array as="points">
              <mxPoint x="420" y="340" />
            </Array>
          </mxGeometry>
        </mxCell>
        <mxCell id="9Zhmse27T_AW59ZkBnsE-6" value="" style="endArrow=none;html=1;rounded=0;strokeColor=#ADADAD;" edge="1" parent="9Zhmse27T_AW59ZkBnsE-1">
          <mxGeometry width="50" height="50" relative="1" as="geometry">
            <mxPoint x="400" y="360" as="sourcePoint" />
            <mxPoint x="440" y="360" as="targetPoint" />
            <Array as="points">
              <mxPoint x="420" y="360" />
            </Array>
          </mxGeometry>
        </mxCell>
        <mxCell id="9Zhmse27T_AW59ZkBnsE-9" value="" style="endArrow=classic;html=1;rounded=0;exitX=0.5;exitY=1;exitDx=0;exitDy=0;" edge="1" parent="9Zhmse27T_AW59ZkBnsE-1" source="1cofCkxaq7E1pN8c_vsZ-0">
          <mxGeometry width="50" height="50" relative="1" as="geometry">
            <mxPoint x="670" y="320" as="sourcePoint" />
            <mxPoint x="670" y="350" as="targetPoint" />
          </mxGeometry>
        </mxCell>
        <mxCell id="1cofCkxaq7E1pN8c_vsZ-0" value="&lt;font style=&quot;font-size: 16px;&quot;&gt;&lt;b&gt;?&lt;/b&gt;&lt;/font&gt;" style="whiteSpace=wrap;html=1;aspect=fixed;" vertex="1" parent="9Zhmse27T_AW59ZkBnsE-1">
          <mxGeometry x="630" y="205" width="80" height="80" as="geometry" />
        </mxCell>
        <mxCell id="1cofCkxaq7E1pN8c_vsZ-1" value="" style="endArrow=none;html=1;rounded=0;" edge="1" parent="9Zhmse27T_AW59ZkBnsE-1">
          <mxGeometry width="50" height="50" relative="1" as="geometry">
            <mxPoint x="610" y="360" as="sourcePoint" />
            <mxPoint x="730" y="360" as="targetPoint" />
            <Array as="points">
              <mxPoint x="670" y="360" />
            </Array>
          </mxGeometry>
        </mxCell>
        <mxCell id="1cofCkxaq7E1pN8c_vsZ-2" value="" style="endArrow=none;html=1;rounded=0;" edge="1" parent="9Zhmse27T_AW59ZkBnsE-1">
          <mxGeometry width="50" height="50" relative="1" as="geometry">
            <mxPoint x="630" y="380" as="sourcePoint" />
            <mxPoint x="710" y="380" as="targetPoint" />
            <Array as="points">
              <mxPoint x="670" y="380" />
            </Array>
          </mxGeometry>
        </mxCell>
        <mxCell id="1cofCkxaq7E1pN8c_vsZ-3" value="" style="endArrow=none;html=1;rounded=0;strokeColor=#ADADAD;" edge="1" parent="9Zhmse27T_AW59ZkBnsE-1">
          <mxGeometry width="50" height="50" relative="1" as="geometry">
            <mxPoint x="650" y="400" as="sourcePoint" />
            <mxPoint x="690" y="400" as="targetPoint" />
            <Array as="points">
              <mxPoint x="670" y="400" />
            </Array>
          </mxGeometry>
        </mxCell>
      </root>
    </mxGraphModel>
  </diagram>
  <diagram name="Etapa 4.2" id="RNjUw4PlNLKVaQqcL-vq">
    <mxGraphModel dx="1434" dy="786" grid="1" gridSize="10" guides="1" tooltips="1" connect="1" arrows="1" fold="1" page="1" pageScale="1" pageWidth="827" pageHeight="1169" math="0" shadow="0">
      <root>
        <mxCell id="nlDuL3Wg5YMdejUoDItp-0" />
        <mxCell id="nlDuL3Wg5YMdejUoDItp-1" parent="nlDuL3Wg5YMdejUoDItp-0" />
        <mxCell id="nlDuL3Wg5YMdejUoDItp-2" value="&lt;b&gt;&lt;font style=&quot;font-size: 16px;&quot;&gt;TOPO&lt;/font&gt;&lt;/b&gt;" style="text;html=1;align=center;verticalAlign=middle;whiteSpace=wrap;rounded=0;" vertex="1" parent="nlDuL3Wg5YMdejUoDItp-1">
          <mxGeometry x="360" y="205" width="120" height="40" as="geometry" />
        </mxCell>
        <mxCell id="nlDuL3Wg5YMdejUoDItp-3" value="" style="endArrow=classic;html=1;rounded=0;" edge="1" parent="nlDuL3Wg5YMdejUoDItp-1">
          <mxGeometry width="50" height="50" relative="1" as="geometry">
            <mxPoint x="419.5" y="245" as="sourcePoint" />
            <mxPoint x="419.5" y="315" as="targetPoint" />
          </mxGeometry>
        </mxCell>
        <mxCell id="nlDuL3Wg5YMdejUoDItp-4" value="" style="endArrow=none;html=1;rounded=0;" edge="1" parent="nlDuL3Wg5YMdejUoDItp-1">
          <mxGeometry width="50" height="50" relative="1" as="geometry">
            <mxPoint x="360" y="320" as="sourcePoint" />
            <mxPoint x="480" y="320" as="targetPoint" />
            <Array as="points">
              <mxPoint x="420" y="320" />
            </Array>
          </mxGeometry>
        </mxCell>
        <mxCell id="nlDuL3Wg5YMdejUoDItp-5" value="" style="endArrow=none;html=1;rounded=0;" edge="1" parent="nlDuL3Wg5YMdejUoDItp-1">
          <mxGeometry width="50" height="50" relative="1" as="geometry">
            <mxPoint x="380" y="340" as="sourcePoint" />
            <mxPoint x="460" y="340" as="targetPoint" />
            <Array as="points">
              <mxPoint x="420" y="340" />
            </Array>
          </mxGeometry>
        </mxCell>
        <mxCell id="nlDuL3Wg5YMdejUoDItp-6" value="" style="endArrow=none;html=1;rounded=0;strokeColor=#ADADAD;" edge="1" parent="nlDuL3Wg5YMdejUoDItp-1">
          <mxGeometry width="50" height="50" relative="1" as="geometry">
            <mxPoint x="400" y="360" as="sourcePoint" />
            <mxPoint x="440" y="360" as="targetPoint" />
            <Array as="points">
              <mxPoint x="420" y="360" />
            </Array>
          </mxGeometry>
        </mxCell>
        <mxCell id="nlDuL3Wg5YMdejUoDItp-7" value="" style="endArrow=classic;html=1;rounded=0;exitX=0.5;exitY=1;exitDx=0;exitDy=0;" edge="1" parent="nlDuL3Wg5YMdejUoDItp-1" source="nlDuL3Wg5YMdejUoDItp-8">
          <mxGeometry width="50" height="50" relative="1" as="geometry">
            <mxPoint x="670" y="320" as="sourcePoint" />
            <mxPoint x="450" y="320" as="targetPoint" />
          </mxGeometry>
        </mxCell>
        <mxCell id="nlDuL3Wg5YMdejUoDItp-8" value="&lt;font style=&quot;font-size: 16px;&quot;&gt;&lt;b&gt;?&lt;/b&gt;&lt;/font&gt;" style="whiteSpace=wrap;html=1;aspect=fixed;" vertex="1" parent="nlDuL3Wg5YMdejUoDItp-1">
          <mxGeometry x="630" y="205" width="80" height="80" as="geometry" />
        </mxCell>
      </root>
    </mxGraphModel>
  </diagram>
  <diagram name="Etapa 4.3" id="8OKBfzLg7XK1rrWUtmFA">
    <mxGraphModel dx="1434" dy="786" grid="1" gridSize="10" guides="1" tooltips="1" connect="1" arrows="1" fold="1" page="1" pageScale="1" pageWidth="827" pageHeight="1169" math="0" shadow="0">
      <root>
        <mxCell id="26Hrl2UwcBZOM7r-6tM8-0" />
        <mxCell id="26Hrl2UwcBZOM7r-6tM8-1" parent="26Hrl2UwcBZOM7r-6tM8-0" />
        <mxCell id="26Hrl2UwcBZOM7r-6tM8-2" value="&lt;b&gt;&lt;font style=&quot;font-size: 16px;&quot;&gt;TOPO&lt;/font&gt;&lt;/b&gt;" style="text;html=1;align=center;verticalAlign=middle;whiteSpace=wrap;rounded=0;" vertex="1" parent="26Hrl2UwcBZOM7r-6tM8-1">
          <mxGeometry x="360" y="80" width="120" height="40" as="geometry" />
        </mxCell>
        <mxCell id="26Hrl2UwcBZOM7r-6tM8-3" value="" style="endArrow=classic;html=1;rounded=0;" edge="1" parent="26Hrl2UwcBZOM7r-6tM8-1">
          <mxGeometry width="50" height="50" relative="1" as="geometry">
            <mxPoint x="419.5" y="120" as="sourcePoint" />
            <mxPoint x="419.5" y="190" as="targetPoint" />
          </mxGeometry>
        </mxCell>
        <mxCell id="26Hrl2UwcBZOM7r-6tM8-4" value="" style="endArrow=none;html=1;rounded=0;" edge="1" parent="26Hrl2UwcBZOM7r-6tM8-1">
          <mxGeometry width="50" height="50" relative="1" as="geometry">
            <mxPoint x="360" y="360" as="sourcePoint" />
            <mxPoint x="480" y="360" as="targetPoint" />
            <Array as="points">
              <mxPoint x="420" y="360" />
            </Array>
          </mxGeometry>
        </mxCell>
        <mxCell id="26Hrl2UwcBZOM7r-6tM8-5" value="" style="endArrow=none;html=1;rounded=0;" edge="1" parent="26Hrl2UwcBZOM7r-6tM8-1">
          <mxGeometry width="50" height="50" relative="1" as="geometry">
            <mxPoint x="380" y="380" as="sourcePoint" />
            <mxPoint x="460" y="380" as="targetPoint" />
            <Array as="points">
              <mxPoint x="420" y="380" />
            </Array>
          </mxGeometry>
        </mxCell>
        <mxCell id="26Hrl2UwcBZOM7r-6tM8-6" value="" style="endArrow=none;html=1;rounded=0;strokeColor=#ADADAD;" edge="1" parent="26Hrl2UwcBZOM7r-6tM8-1">
          <mxGeometry width="50" height="50" relative="1" as="geometry">
            <mxPoint x="400" y="400" as="sourcePoint" />
            <mxPoint x="440" y="400" as="targetPoint" />
            <Array as="points">
              <mxPoint x="420" y="400" />
            </Array>
          </mxGeometry>
        </mxCell>
        <mxCell id="26Hrl2UwcBZOM7r-6tM8-7" value="" style="endArrow=classic;html=1;rounded=0;exitX=0.5;exitY=1;exitDx=0;exitDy=0;" edge="1" parent="26Hrl2UwcBZOM7r-6tM8-1" source="26Hrl2UwcBZOM7r-6tM8-8">
          <mxGeometry width="50" height="50" relative="1" as="geometry">
            <mxPoint x="670" y="320" as="sourcePoint" />
            <mxPoint x="420" y="350" as="targetPoint" />
          </mxGeometry>
        </mxCell>
        <mxCell id="26Hrl2UwcBZOM7r-6tM8-8" value="&lt;font style=&quot;font-size: 16px;&quot;&gt;&lt;b&gt;?&lt;/b&gt;&lt;/font&gt;" style="whiteSpace=wrap;html=1;aspect=fixed;" vertex="1" parent="26Hrl2UwcBZOM7r-6tM8-1">
          <mxGeometry x="380" y="200" width="80" height="80" as="geometry" />
        </mxCell>
      </root>
    </mxGraphModel>
  </diagram>
  <diagram name="Etapa 5.1" id="x6FT0nsqms4skIrHPB87">
    <mxGraphModel dx="1434" dy="786" grid="1" gridSize="10" guides="1" tooltips="1" connect="1" arrows="1" fold="1" page="1" pageScale="1" pageWidth="827" pageHeight="1169" math="0" shadow="0">
      <root>
        <mxCell id="EsWS0P27WWwy4s1ysfDl-0" />
        <mxCell id="EsWS0P27WWwy4s1ysfDl-1" parent="EsWS0P27WWwy4s1ysfDl-0" />
        <mxCell id="EsWS0P27WWwy4s1ysfDl-2" value="&lt;b&gt;&lt;font style=&quot;font-size: 16px;&quot;&gt;TOPO&lt;/font&gt;&lt;/b&gt;" style="text;html=1;align=center;verticalAlign=middle;whiteSpace=wrap;rounded=0;" vertex="1" parent="EsWS0P27WWwy4s1ysfDl-1">
          <mxGeometry x="360" y="80" width="120" height="40" as="geometry" />
        </mxCell>
        <mxCell id="EsWS0P27WWwy4s1ysfDl-3" value="" style="endArrow=classic;html=1;rounded=0;" edge="1" parent="EsWS0P27WWwy4s1ysfDl-1">
          <mxGeometry width="50" height="50" relative="1" as="geometry">
            <mxPoint x="419.5" y="120" as="sourcePoint" />
            <mxPoint x="419.5" y="190" as="targetPoint" />
          </mxGeometry>
        </mxCell>
        <mxCell id="EsWS0P27WWwy4s1ysfDl-4" value="" style="endArrow=none;html=1;rounded=0;" edge="1" parent="EsWS0P27WWwy4s1ysfDl-1">
          <mxGeometry width="50" height="50" relative="1" as="geometry">
            <mxPoint x="360" y="360" as="sourcePoint" />
            <mxPoint x="480" y="360" as="targetPoint" />
            <Array as="points">
              <mxPoint x="420" y="360" />
            </Array>
          </mxGeometry>
        </mxCell>
        <mxCell id="EsWS0P27WWwy4s1ysfDl-5" value="" style="endArrow=none;html=1;rounded=0;" edge="1" parent="EsWS0P27WWwy4s1ysfDl-1">
          <mxGeometry width="50" height="50" relative="1" as="geometry">
            <mxPoint x="380" y="380" as="sourcePoint" />
            <mxPoint x="460" y="380" as="targetPoint" />
            <Array as="points">
              <mxPoint x="420" y="380" />
            </Array>
          </mxGeometry>
        </mxCell>
        <mxCell id="EsWS0P27WWwy4s1ysfDl-6" value="" style="endArrow=none;html=1;rounded=0;strokeColor=#ADADAD;" edge="1" parent="EsWS0P27WWwy4s1ysfDl-1">
          <mxGeometry width="50" height="50" relative="1" as="geometry">
            <mxPoint x="400" y="400" as="sourcePoint" />
            <mxPoint x="440" y="400" as="targetPoint" />
            <Array as="points">
              <mxPoint x="420" y="400" />
            </Array>
          </mxGeometry>
        </mxCell>
        <mxCell id="EsWS0P27WWwy4s1ysfDl-7" value="" style="endArrow=classic;html=1;rounded=0;exitX=0.5;exitY=1;exitDx=0;exitDy=0;" edge="1" parent="EsWS0P27WWwy4s1ysfDl-1" source="EsWS0P27WWwy4s1ysfDl-8">
          <mxGeometry width="50" height="50" relative="1" as="geometry">
            <mxPoint x="670" y="320" as="sourcePoint" />
            <mxPoint x="420" y="350" as="targetPoint" />
          </mxGeometry>
        </mxCell>
        <mxCell id="EsWS0P27WWwy4s1ysfDl-8" value="&lt;font style=&quot;font-size: 16px;&quot;&gt;&lt;b&gt;?&lt;/b&gt;&lt;/font&gt;" style="whiteSpace=wrap;html=1;aspect=fixed;" vertex="1" parent="EsWS0P27WWwy4s1ysfDl-1">
          <mxGeometry x="380" y="200" width="80" height="80" as="geometry" />
        </mxCell>
        <mxCell id="3JcuxSMbnRbEtrPokLV--0" value="&lt;font style=&quot;font-size: 16px;&quot;&gt;&lt;b&gt;?&lt;/b&gt;&lt;/font&gt;" style="whiteSpace=wrap;html=1;aspect=fixed;" vertex="1" parent="EsWS0P27WWwy4s1ysfDl-1">
          <mxGeometry x="610" y="200" width="80" height="80" as="geometry" />
        </mxCell>
        <mxCell id="3JcuxSMbnRbEtrPokLV--1" value="" style="endArrow=classic;html=1;rounded=0;exitX=0.5;exitY=1;exitDx=0;exitDy=0;" edge="1" parent="EsWS0P27WWwy4s1ysfDl-1" source="3JcuxSMbnRbEtrPokLV--0">
          <mxGeometry width="50" height="50" relative="1" as="geometry">
            <mxPoint x="625" y="350" as="sourcePoint" />
            <mxPoint x="650" y="350" as="targetPoint" />
          </mxGeometry>
        </mxCell>
        <mxCell id="3JcuxSMbnRbEtrPokLV--2" value="" style="endArrow=none;html=1;rounded=0;" edge="1" parent="EsWS0P27WWwy4s1ysfDl-1">
          <mxGeometry width="50" height="50" relative="1" as="geometry">
            <mxPoint x="590" y="360" as="sourcePoint" />
            <mxPoint x="710" y="360" as="targetPoint" />
            <Array as="points">
              <mxPoint x="650" y="360" />
            </Array>
          </mxGeometry>
        </mxCell>
        <mxCell id="3JcuxSMbnRbEtrPokLV--3" value="" style="endArrow=none;html=1;rounded=0;" edge="1" parent="EsWS0P27WWwy4s1ysfDl-1">
          <mxGeometry width="50" height="50" relative="1" as="geometry">
            <mxPoint x="610" y="380" as="sourcePoint" />
            <mxPoint x="690" y="380" as="targetPoint" />
            <Array as="points">
              <mxPoint x="650" y="380" />
            </Array>
          </mxGeometry>
        </mxCell>
        <mxCell id="3JcuxSMbnRbEtrPokLV--4" value="" style="endArrow=none;html=1;rounded=0;strokeColor=#ADADAD;" edge="1" parent="EsWS0P27WWwy4s1ysfDl-1">
          <mxGeometry width="50" height="50" relative="1" as="geometry">
            <mxPoint x="630" y="400" as="sourcePoint" />
            <mxPoint x="670" y="400" as="targetPoint" />
            <Array as="points">
              <mxPoint x="650" y="400" />
            </Array>
          </mxGeometry>
        </mxCell>
      </root>
    </mxGraphModel>
  </diagram>
  <diagram name="Etapa 5.2" id="pGYUTKg_I1gNturK_F7N">
    <mxGraphModel dx="1434" dy="786" grid="1" gridSize="10" guides="1" tooltips="1" connect="1" arrows="1" fold="1" page="1" pageScale="1" pageWidth="827" pageHeight="1169" math="0" shadow="0">
      <root>
        <mxCell id="1EakW4O7iNkC1Ww5vMiR-0" />
        <mxCell id="1EakW4O7iNkC1Ww5vMiR-1" parent="1EakW4O7iNkC1Ww5vMiR-0" />
        <mxCell id="1EakW4O7iNkC1Ww5vMiR-2" value="&lt;b&gt;&lt;font style=&quot;font-size: 16px;&quot;&gt;TOPO&lt;/font&gt;&lt;/b&gt;" style="text;html=1;align=center;verticalAlign=middle;whiteSpace=wrap;rounded=0;" vertex="1" parent="1EakW4O7iNkC1Ww5vMiR-1">
          <mxGeometry x="360" y="80" width="120" height="40" as="geometry" />
        </mxCell>
        <mxCell id="1EakW4O7iNkC1Ww5vMiR-3" value="" style="endArrow=classic;html=1;rounded=0;" edge="1" parent="1EakW4O7iNkC1Ww5vMiR-1">
          <mxGeometry width="50" height="50" relative="1" as="geometry">
            <mxPoint x="419.5" y="120" as="sourcePoint" />
            <mxPoint x="419.5" y="190" as="targetPoint" />
          </mxGeometry>
        </mxCell>
        <mxCell id="1EakW4O7iNkC1Ww5vMiR-4" value="" style="endArrow=none;html=1;rounded=0;" edge="1" parent="1EakW4O7iNkC1Ww5vMiR-1">
          <mxGeometry width="50" height="50" relative="1" as="geometry">
            <mxPoint x="360" y="360" as="sourcePoint" />
            <mxPoint x="480" y="360" as="targetPoint" />
            <Array as="points">
              <mxPoint x="420" y="360" />
            </Array>
          </mxGeometry>
        </mxCell>
        <mxCell id="1EakW4O7iNkC1Ww5vMiR-5" value="" style="endArrow=none;html=1;rounded=0;" edge="1" parent="1EakW4O7iNkC1Ww5vMiR-1">
          <mxGeometry width="50" height="50" relative="1" as="geometry">
            <mxPoint x="380" y="380" as="sourcePoint" />
            <mxPoint x="460" y="380" as="targetPoint" />
            <Array as="points">
              <mxPoint x="420" y="380" />
            </Array>
          </mxGeometry>
        </mxCell>
        <mxCell id="1EakW4O7iNkC1Ww5vMiR-6" value="" style="endArrow=none;html=1;rounded=0;strokeColor=#ADADAD;" edge="1" parent="1EakW4O7iNkC1Ww5vMiR-1">
          <mxGeometry width="50" height="50" relative="1" as="geometry">
            <mxPoint x="400" y="400" as="sourcePoint" />
            <mxPoint x="440" y="400" as="targetPoint" />
            <Array as="points">
              <mxPoint x="420" y="400" />
            </Array>
          </mxGeometry>
        </mxCell>
        <mxCell id="1EakW4O7iNkC1Ww5vMiR-7" value="" style="endArrow=classic;html=1;rounded=0;exitX=0.5;exitY=1;exitDx=0;exitDy=0;" edge="1" parent="1EakW4O7iNkC1Ww5vMiR-1" source="1EakW4O7iNkC1Ww5vMiR-8">
          <mxGeometry width="50" height="50" relative="1" as="geometry">
            <mxPoint x="670" y="320" as="sourcePoint" />
            <mxPoint x="420" y="350" as="targetPoint" />
          </mxGeometry>
        </mxCell>
        <mxCell id="1EakW4O7iNkC1Ww5vMiR-8" value="&lt;font style=&quot;font-size: 16px;&quot;&gt;&lt;b&gt;?&lt;/b&gt;&lt;/font&gt;" style="whiteSpace=wrap;html=1;aspect=fixed;" vertex="1" parent="1EakW4O7iNkC1Ww5vMiR-1">
          <mxGeometry x="380" y="200" width="80" height="80" as="geometry" />
        </mxCell>
        <mxCell id="1EakW4O7iNkC1Ww5vMiR-9" value="&lt;font style=&quot;font-size: 16px;&quot;&gt;&lt;b&gt;?&lt;/b&gt;&lt;/font&gt;" style="whiteSpace=wrap;html=1;aspect=fixed;" vertex="1" parent="1EakW4O7iNkC1Ww5vMiR-1">
          <mxGeometry x="610" y="200" width="80" height="80" as="geometry" />
        </mxCell>
        <mxCell id="1EakW4O7iNkC1Ww5vMiR-10" value="" style="endArrow=classic;html=1;rounded=0;exitX=0.5;exitY=1;exitDx=0;exitDy=0;" edge="1" parent="1EakW4O7iNkC1Ww5vMiR-1" source="1EakW4O7iNkC1Ww5vMiR-9">
          <mxGeometry width="50" height="50" relative="1" as="geometry">
            <mxPoint x="625" y="350" as="sourcePoint" />
            <mxPoint x="450" y="360" as="targetPoint" />
          </mxGeometry>
        </mxCell>
      </root>
    </mxGraphModel>
  </diagram>
  <diagram name="Etapa 5.3" id="1iyxiUWThZpyd6kM1lzI">
    <mxGraphModel dx="1434" dy="786" grid="1" gridSize="10" guides="1" tooltips="1" connect="1" arrows="1" fold="1" page="1" pageScale="1" pageWidth="827" pageHeight="1169" math="0" shadow="0">
      <root>
        <mxCell id="aRb0jZh7290aKbnJjWNW-0" />
        <mxCell id="aRb0jZh7290aKbnJjWNW-1" parent="aRb0jZh7290aKbnJjWNW-0" />
        <mxCell id="aRb0jZh7290aKbnJjWNW-2" value="&lt;b&gt;&lt;font style=&quot;font-size: 16px;&quot;&gt;TOPO&lt;/font&gt;&lt;/b&gt;" style="text;html=1;align=center;verticalAlign=middle;whiteSpace=wrap;rounded=0;" vertex="1" parent="aRb0jZh7290aKbnJjWNW-1">
          <mxGeometry x="360" y="80" width="120" height="40" as="geometry" />
        </mxCell>
        <mxCell id="aRb0jZh7290aKbnJjWNW-3" value="" style="endArrow=classic;html=1;rounded=0;" edge="1" parent="aRb0jZh7290aKbnJjWNW-1">
          <mxGeometry width="50" height="50" relative="1" as="geometry">
            <mxPoint x="419.5" y="120" as="sourcePoint" />
            <mxPoint x="419.5" y="190" as="targetPoint" />
          </mxGeometry>
        </mxCell>
        <mxCell id="aRb0jZh7290aKbnJjWNW-4" value="" style="endArrow=none;html=1;rounded=0;" edge="1" parent="aRb0jZh7290aKbnJjWNW-1">
          <mxGeometry width="50" height="50" relative="1" as="geometry">
            <mxPoint x="360" y="544" as="sourcePoint" />
            <mxPoint x="480" y="544" as="targetPoint" />
            <Array as="points">
              <mxPoint x="420" y="544" />
            </Array>
          </mxGeometry>
        </mxCell>
        <mxCell id="aRb0jZh7290aKbnJjWNW-5" value="" style="endArrow=none;html=1;rounded=0;" edge="1" parent="aRb0jZh7290aKbnJjWNW-1">
          <mxGeometry width="50" height="50" relative="1" as="geometry">
            <mxPoint x="380" y="564" as="sourcePoint" />
            <mxPoint x="460" y="564" as="targetPoint" />
            <Array as="points">
              <mxPoint x="420" y="564" />
            </Array>
          </mxGeometry>
        </mxCell>
        <mxCell id="aRb0jZh7290aKbnJjWNW-6" value="" style="endArrow=none;html=1;rounded=0;strokeColor=#ADADAD;" edge="1" parent="aRb0jZh7290aKbnJjWNW-1">
          <mxGeometry width="50" height="50" relative="1" as="geometry">
            <mxPoint x="400" y="584" as="sourcePoint" />
            <mxPoint x="440" y="584" as="targetPoint" />
            <Array as="points">
              <mxPoint x="420" y="584" />
            </Array>
          </mxGeometry>
        </mxCell>
        <mxCell id="aRb0jZh7290aKbnJjWNW-7" value="" style="endArrow=classic;html=1;rounded=0;exitX=0.5;exitY=1;exitDx=0;exitDy=0;" edge="1" parent="aRb0jZh7290aKbnJjWNW-1" source="aRb0jZh7290aKbnJjWNW-8">
          <mxGeometry width="50" height="50" relative="1" as="geometry">
            <mxPoint x="670" y="320" as="sourcePoint" />
            <mxPoint x="420" y="350" as="targetPoint" />
          </mxGeometry>
        </mxCell>
        <mxCell id="aRb0jZh7290aKbnJjWNW-8" value="&lt;font style=&quot;font-size: 16px;&quot;&gt;&lt;b&gt;?&lt;/b&gt;&lt;/font&gt;" style="whiteSpace=wrap;html=1;aspect=fixed;" vertex="1" parent="aRb0jZh7290aKbnJjWNW-1">
          <mxGeometry x="380" y="200" width="80" height="80" as="geometry" />
        </mxCell>
        <mxCell id="aRb0jZh7290aKbnJjWNW-9" value="&lt;font style=&quot;font-size: 16px;&quot;&gt;&lt;b&gt;?&lt;/b&gt;&lt;/font&gt;" style="whiteSpace=wrap;html=1;aspect=fixed;" vertex="1" parent="aRb0jZh7290aKbnJjWNW-1">
          <mxGeometry x="380" y="360" width="80" height="80" as="geometry" />
        </mxCell>
        <mxCell id="aRb0jZh7290aKbnJjWNW-10" value="" style="endArrow=classic;html=1;rounded=0;exitX=0.5;exitY=1;exitDx=0;exitDy=0;" edge="1" parent="aRb0jZh7290aKbnJjWNW-1" source="aRb0jZh7290aKbnJjWNW-9">
          <mxGeometry width="50" height="50" relative="1" as="geometry">
            <mxPoint x="399" y="540" as="sourcePoint" />
            <mxPoint x="420" y="530" as="targetPoint" />
          </mxGeometry>
        </mxCell>
      </root>
    </mxGraphModel>
  </diagram>
  <diagram name="Etapa 6.1" id="-pbzwfIkQhXFTn_E73WS">
    <mxGraphModel dx="1434" dy="786" grid="1" gridSize="10" guides="1" tooltips="1" connect="1" arrows="1" fold="1" page="1" pageScale="1" pageWidth="827" pageHeight="1169" math="0" shadow="0">
      <root>
        <mxCell id="5wcg447p4EVstzhbxTat-0" />
        <mxCell id="5wcg447p4EVstzhbxTat-1" parent="5wcg447p4EVstzhbxTat-0" />
        <mxCell id="5wcg447p4EVstzhbxTat-2" value="&lt;b&gt;&lt;font style=&quot;font-size: 16px;&quot;&gt;TOPO&lt;/font&gt;&lt;/b&gt;" style="text;html=1;align=center;verticalAlign=middle;whiteSpace=wrap;rounded=0;" vertex="1" parent="5wcg447p4EVstzhbxTat-1">
          <mxGeometry x="360" y="80" width="120" height="40" as="geometry" />
        </mxCell>
        <mxCell id="5wcg447p4EVstzhbxTat-3" value="" style="endArrow=classic;html=1;rounded=0;" edge="1" parent="5wcg447p4EVstzhbxTat-1">
          <mxGeometry width="50" height="50" relative="1" as="geometry">
            <mxPoint x="419.5" y="120" as="sourcePoint" />
            <mxPoint x="419.5" y="190" as="targetPoint" />
          </mxGeometry>
        </mxCell>
        <mxCell id="5wcg447p4EVstzhbxTat-4" value="" style="endArrow=none;html=1;rounded=0;" edge="1" parent="5wcg447p4EVstzhbxTat-1">
          <mxGeometry width="50" height="50" relative="1" as="geometry">
            <mxPoint x="360" y="544" as="sourcePoint" />
            <mxPoint x="480" y="544" as="targetPoint" />
            <Array as="points">
              <mxPoint x="420" y="544" />
            </Array>
          </mxGeometry>
        </mxCell>
        <mxCell id="5wcg447p4EVstzhbxTat-5" value="" style="endArrow=none;html=1;rounded=0;" edge="1" parent="5wcg447p4EVstzhbxTat-1">
          <mxGeometry width="50" height="50" relative="1" as="geometry">
            <mxPoint x="380" y="564" as="sourcePoint" />
            <mxPoint x="460" y="564" as="targetPoint" />
            <Array as="points">
              <mxPoint x="420" y="564" />
            </Array>
          </mxGeometry>
        </mxCell>
        <mxCell id="5wcg447p4EVstzhbxTat-6" value="" style="endArrow=none;html=1;rounded=0;strokeColor=#ADADAD;" edge="1" parent="5wcg447p4EVstzhbxTat-1">
          <mxGeometry width="50" height="50" relative="1" as="geometry">
            <mxPoint x="400" y="584" as="sourcePoint" />
            <mxPoint x="440" y="584" as="targetPoint" />
            <Array as="points">
              <mxPoint x="420" y="584" />
            </Array>
          </mxGeometry>
        </mxCell>
        <mxCell id="5wcg447p4EVstzhbxTat-7" value="" style="endArrow=classic;html=1;rounded=0;exitX=0.5;exitY=1;exitDx=0;exitDy=0;" edge="1" parent="5wcg447p4EVstzhbxTat-1" source="5wcg447p4EVstzhbxTat-8">
          <mxGeometry width="50" height="50" relative="1" as="geometry">
            <mxPoint x="670" y="320" as="sourcePoint" />
            <mxPoint x="420" y="350" as="targetPoint" />
          </mxGeometry>
        </mxCell>
        <mxCell id="5wcg447p4EVstzhbxTat-8" value="&lt;font style=&quot;font-size: 16px;&quot;&gt;&lt;b&gt;?&lt;/b&gt;&lt;/font&gt;" style="whiteSpace=wrap;html=1;aspect=fixed;" vertex="1" parent="5wcg447p4EVstzhbxTat-1">
          <mxGeometry x="380" y="200" width="80" height="80" as="geometry" />
        </mxCell>
        <mxCell id="5wcg447p4EVstzhbxTat-9" value="&lt;font style=&quot;font-size: 16px;&quot;&gt;&lt;b&gt;?&lt;/b&gt;&lt;/font&gt;" style="whiteSpace=wrap;html=1;aspect=fixed;" vertex="1" parent="5wcg447p4EVstzhbxTat-1">
          <mxGeometry x="380" y="360" width="80" height="80" as="geometry" />
        </mxCell>
        <mxCell id="5wcg447p4EVstzhbxTat-10" value="" style="endArrow=classic;html=1;rounded=0;exitX=0.5;exitY=1;exitDx=0;exitDy=0;" edge="1" parent="5wcg447p4EVstzhbxTat-1" source="5wcg447p4EVstzhbxTat-9">
          <mxGeometry width="50" height="50" relative="1" as="geometry">
            <mxPoint x="399" y="540" as="sourcePoint" />
            <mxPoint x="420" y="530" as="targetPoint" />
          </mxGeometry>
        </mxCell>
        <mxCell id="agcHRD4TndP253hPYg75-0" value="&lt;font style=&quot;font-size: 16px;&quot;&gt;&lt;b&gt;AUX&lt;/b&gt;&lt;/font&gt;" style="text;html=1;align=center;verticalAlign=middle;whiteSpace=wrap;rounded=0;" vertex="1" parent="5wcg447p4EVstzhbxTat-1">
          <mxGeometry x="600" y="90" width="60" height="30" as="geometry" />
        </mxCell>
        <mxCell id="agcHRD4TndP253hPYg75-1" value="" style="endArrow=classic;html=1;rounded=0;exitX=0.5;exitY=1;exitDx=0;exitDy=0;" edge="1" parent="5wcg447p4EVstzhbxTat-1" source="agcHRD4TndP253hPYg75-0">
          <mxGeometry width="50" height="50" relative="1" as="geometry">
            <mxPoint x="520" y="200" as="sourcePoint" />
            <mxPoint x="470" y="230" as="targetPoint" />
          </mxGeometry>
        </mxCell>
      </root>
    </mxGraphModel>
  </diagram>
  <diagram name="Etapa 6.2" id="wsTOG5xPfVRo_LH1EbDy">
    <mxGraphModel dx="1434" dy="786" grid="1" gridSize="10" guides="1" tooltips="1" connect="1" arrows="1" fold="1" page="1" pageScale="1" pageWidth="827" pageHeight="1169" math="0" shadow="0">
      <root>
        <mxCell id="Kq3irSaHxDOPIM9tFVs3-0" />
        <mxCell id="Kq3irSaHxDOPIM9tFVs3-1" parent="Kq3irSaHxDOPIM9tFVs3-0" />
        <mxCell id="Kq3irSaHxDOPIM9tFVs3-2" value="&lt;b&gt;&lt;font style=&quot;font-size: 16px;&quot;&gt;TOPO&lt;/font&gt;&lt;/b&gt;" style="text;html=1;align=center;verticalAlign=middle;whiteSpace=wrap;rounded=0;" vertex="1" parent="Kq3irSaHxDOPIM9tFVs3-1">
          <mxGeometry x="140" y="280" width="120" height="40" as="geometry" />
        </mxCell>
        <mxCell id="Kq3irSaHxDOPIM9tFVs3-3" value="" style="endArrow=classic;html=1;rounded=0;entryX=0;entryY=0.5;entryDx=0;entryDy=0;exitX=0.5;exitY=1;exitDx=0;exitDy=0;" edge="1" parent="Kq3irSaHxDOPIM9tFVs3-1" source="Kq3irSaHxDOPIM9tFVs3-2">
          <mxGeometry width="50" height="50" relative="1" as="geometry">
            <mxPoint x="179.5" y="399.5" as="sourcePoint" />
            <mxPoint x="380" y="399.5" as="targetPoint" />
          </mxGeometry>
        </mxCell>
        <mxCell id="Kq3irSaHxDOPIM9tFVs3-4" value="" style="endArrow=none;html=1;rounded=0;" edge="1" parent="Kq3irSaHxDOPIM9tFVs3-1">
          <mxGeometry width="50" height="50" relative="1" as="geometry">
            <mxPoint x="360" y="544" as="sourcePoint" />
            <mxPoint x="480" y="544" as="targetPoint" />
            <Array as="points">
              <mxPoint x="420" y="544" />
            </Array>
          </mxGeometry>
        </mxCell>
        <mxCell id="Kq3irSaHxDOPIM9tFVs3-5" value="" style="endArrow=none;html=1;rounded=0;" edge="1" parent="Kq3irSaHxDOPIM9tFVs3-1">
          <mxGeometry width="50" height="50" relative="1" as="geometry">
            <mxPoint x="380" y="564" as="sourcePoint" />
            <mxPoint x="460" y="564" as="targetPoint" />
            <Array as="points">
              <mxPoint x="420" y="564" />
            </Array>
          </mxGeometry>
        </mxCell>
        <mxCell id="Kq3irSaHxDOPIM9tFVs3-6" value="" style="endArrow=none;html=1;rounded=0;strokeColor=#ADADAD;" edge="1" parent="Kq3irSaHxDOPIM9tFVs3-1">
          <mxGeometry width="50" height="50" relative="1" as="geometry">
            <mxPoint x="400" y="584" as="sourcePoint" />
            <mxPoint x="440" y="584" as="targetPoint" />
            <Array as="points">
              <mxPoint x="420" y="584" />
            </Array>
          </mxGeometry>
        </mxCell>
        <mxCell id="Kq3irSaHxDOPIM9tFVs3-7" value="" style="endArrow=classic;html=1;rounded=0;exitX=0.5;exitY=1;exitDx=0;exitDy=0;" edge="1" parent="Kq3irSaHxDOPIM9tFVs3-1" source="Kq3irSaHxDOPIM9tFVs3-8">
          <mxGeometry width="50" height="50" relative="1" as="geometry">
            <mxPoint x="670" y="320" as="sourcePoint" />
            <mxPoint x="420" y="350" as="targetPoint" />
          </mxGeometry>
        </mxCell>
        <mxCell id="Kq3irSaHxDOPIM9tFVs3-8" value="&lt;font style=&quot;font-size: 16px;&quot;&gt;&lt;b&gt;?&lt;/b&gt;&lt;/font&gt;" style="whiteSpace=wrap;html=1;aspect=fixed;" vertex="1" parent="Kq3irSaHxDOPIM9tFVs3-1">
          <mxGeometry x="380" y="200" width="80" height="80" as="geometry" />
        </mxCell>
        <mxCell id="Kq3irSaHxDOPIM9tFVs3-9" value="&lt;font style=&quot;font-size: 16px;&quot;&gt;&lt;b&gt;?&lt;/b&gt;&lt;/font&gt;" style="whiteSpace=wrap;html=1;aspect=fixed;" vertex="1" parent="Kq3irSaHxDOPIM9tFVs3-1">
          <mxGeometry x="380" y="360" width="80" height="80" as="geometry" />
        </mxCell>
        <mxCell id="Kq3irSaHxDOPIM9tFVs3-10" value="" style="endArrow=classic;html=1;rounded=0;exitX=0.5;exitY=1;exitDx=0;exitDy=0;" edge="1" parent="Kq3irSaHxDOPIM9tFVs3-1" source="Kq3irSaHxDOPIM9tFVs3-9">
          <mxGeometry width="50" height="50" relative="1" as="geometry">
            <mxPoint x="399" y="540" as="sourcePoint" />
            <mxPoint x="420" y="530" as="targetPoint" />
          </mxGeometry>
        </mxCell>
        <mxCell id="Kq3irSaHxDOPIM9tFVs3-11" value="&lt;font style=&quot;font-size: 16px;&quot;&gt;&lt;b&gt;AUX&lt;/b&gt;&lt;/font&gt;" style="text;html=1;align=center;verticalAlign=middle;whiteSpace=wrap;rounded=0;" vertex="1" parent="Kq3irSaHxDOPIM9tFVs3-1">
          <mxGeometry x="600" y="90" width="60" height="30" as="geometry" />
        </mxCell>
        <mxCell id="Kq3irSaHxDOPIM9tFVs3-12" value="" style="endArrow=classic;html=1;rounded=0;exitX=0.5;exitY=1;exitDx=0;exitDy=0;" edge="1" parent="Kq3irSaHxDOPIM9tFVs3-1" source="Kq3irSaHxDOPIM9tFVs3-11">
          <mxGeometry width="50" height="50" relative="1" as="geometry">
            <mxPoint x="520" y="200" as="sourcePoint" />
            <mxPoint x="470" y="230" as="targetPoint" />
          </mxGeometry>
        </mxCell>
      </root>
    </mxGraphModel>
  </diagram>
  <diagram name="Etapa 6.3" id="wNmhD7StFNePgskfI97V">
    <mxGraphModel dx="1434" dy="786" grid="1" gridSize="10" guides="1" tooltips="1" connect="1" arrows="1" fold="1" page="1" pageScale="1" pageWidth="827" pageHeight="1169" math="0" shadow="0">
      <root>
        <mxCell id="f4ipxq8iA2duLLmaELbp-0" />
        <mxCell id="f4ipxq8iA2duLLmaELbp-1" parent="f4ipxq8iA2duLLmaELbp-0" />
        <mxCell id="f4ipxq8iA2duLLmaELbp-2" value="&lt;b&gt;&lt;font style=&quot;font-size: 16px;&quot;&gt;TOPO&lt;/font&gt;&lt;/b&gt;" style="text;html=1;align=center;verticalAlign=middle;whiteSpace=wrap;rounded=0;" vertex="1" parent="f4ipxq8iA2duLLmaELbp-1">
          <mxGeometry x="140" y="280" width="120" height="40" as="geometry" />
        </mxCell>
        <mxCell id="f4ipxq8iA2duLLmaELbp-3" value="" style="endArrow=classic;html=1;rounded=0;entryX=0;entryY=0.5;entryDx=0;entryDy=0;exitX=0.5;exitY=1;exitDx=0;exitDy=0;" edge="1" parent="f4ipxq8iA2duLLmaELbp-1" source="f4ipxq8iA2duLLmaELbp-2">
          <mxGeometry width="50" height="50" relative="1" as="geometry">
            <mxPoint x="179.5" y="399.5" as="sourcePoint" />
            <mxPoint x="380" y="399.5" as="targetPoint" />
          </mxGeometry>
        </mxCell>
        <mxCell id="f4ipxq8iA2duLLmaELbp-4" value="" style="endArrow=none;html=1;rounded=0;" edge="1" parent="f4ipxq8iA2duLLmaELbp-1">
          <mxGeometry width="50" height="50" relative="1" as="geometry">
            <mxPoint x="360" y="544" as="sourcePoint" />
            <mxPoint x="480" y="544" as="targetPoint" />
            <Array as="points">
              <mxPoint x="420" y="544" />
            </Array>
          </mxGeometry>
        </mxCell>
        <mxCell id="f4ipxq8iA2duLLmaELbp-5" value="" style="endArrow=none;html=1;rounded=0;" edge="1" parent="f4ipxq8iA2duLLmaELbp-1">
          <mxGeometry width="50" height="50" relative="1" as="geometry">
            <mxPoint x="380" y="564" as="sourcePoint" />
            <mxPoint x="460" y="564" as="targetPoint" />
            <Array as="points">
              <mxPoint x="420" y="564" />
            </Array>
          </mxGeometry>
        </mxCell>
        <mxCell id="f4ipxq8iA2duLLmaELbp-6" value="" style="endArrow=none;html=1;rounded=0;strokeColor=#ADADAD;" edge="1" parent="f4ipxq8iA2duLLmaELbp-1">
          <mxGeometry width="50" height="50" relative="1" as="geometry">
            <mxPoint x="400" y="584" as="sourcePoint" />
            <mxPoint x="440" y="584" as="targetPoint" />
            <Array as="points">
              <mxPoint x="420" y="584" />
            </Array>
          </mxGeometry>
        </mxCell>
        <mxCell id="f4ipxq8iA2duLLmaELbp-7" value="" style="endArrow=classic;html=1;rounded=0;exitX=0.5;exitY=1;exitDx=0;exitDy=0;" edge="1" parent="f4ipxq8iA2duLLmaELbp-1" source="f4ipxq8iA2duLLmaELbp-8">
          <mxGeometry width="50" height="50" relative="1" as="geometry">
            <mxPoint x="670" y="320" as="sourcePoint" />
            <mxPoint x="420" y="350" as="targetPoint" />
          </mxGeometry>
        </mxCell>
        <mxCell id="f4ipxq8iA2duLLmaELbp-8" value="&lt;font style=&quot;font-size: 16px;&quot;&gt;&lt;b&gt;?&lt;/b&gt;&lt;/font&gt;" style="whiteSpace=wrap;html=1;aspect=fixed;" vertex="1" parent="f4ipxq8iA2duLLmaELbp-1">
          <mxGeometry x="380" y="200" width="80" height="80" as="geometry" />
        </mxCell>
        <mxCell id="f4ipxq8iA2duLLmaELbp-9" value="&lt;font style=&quot;font-size: 16px;&quot;&gt;&lt;b&gt;?&lt;/b&gt;&lt;/font&gt;" style="whiteSpace=wrap;html=1;aspect=fixed;" vertex="1" parent="f4ipxq8iA2duLLmaELbp-1">
          <mxGeometry x="380" y="360" width="80" height="80" as="geometry" />
        </mxCell>
        <mxCell id="f4ipxq8iA2duLLmaELbp-10" value="" style="endArrow=classic;html=1;rounded=0;exitX=0.5;exitY=1;exitDx=0;exitDy=0;" edge="1" parent="f4ipxq8iA2duLLmaELbp-1" source="f4ipxq8iA2duLLmaELbp-9">
          <mxGeometry width="50" height="50" relative="1" as="geometry">
            <mxPoint x="399" y="540" as="sourcePoint" />
            <mxPoint x="420" y="530" as="targetPoint" />
          </mxGeometry>
        </mxCell>
        <mxCell id="f4ipxq8iA2duLLmaELbp-11" value="&lt;font style=&quot;font-size: 16px;&quot;&gt;&lt;b&gt;AUX&lt;/b&gt;&lt;/font&gt;" style="text;html=1;align=center;verticalAlign=middle;whiteSpace=wrap;rounded=0;" vertex="1" parent="f4ipxq8iA2duLLmaELbp-1">
          <mxGeometry x="600" y="90" width="60" height="30" as="geometry" />
        </mxCell>
        <mxCell id="f4ipxq8iA2duLLmaELbp-12" value="" style="endArrow=classic;html=1;rounded=0;exitX=0.5;exitY=1;exitDx=0;exitDy=0;" edge="1" parent="f4ipxq8iA2duLLmaELbp-1" source="f4ipxq8iA2duLLmaELbp-11">
          <mxGeometry width="50" height="50" relative="1" as="geometry">
            <mxPoint x="520" y="200" as="sourcePoint" />
            <mxPoint x="470" y="230" as="targetPoint" />
          </mxGeometry>
        </mxCell>
        <mxCell id="jqUC2gk0s5ygQrCQ88Uz-0" value="" style="shape=cross;whiteSpace=wrap;html=1;fillColor=#F80000;rotation=45;" vertex="1" parent="f4ipxq8iA2duLLmaELbp-1">
          <mxGeometry x="380" y="200" width="80" height="80" as="geometry" />
        </mxCell>
      </root>
    </mxGraphModel>
  </diagram>
  <diagram name="Etapa 7.1" id="QZ1AcqXDA0SBPJolVnQS">
    <mxGraphModel dx="1434" dy="786" grid="1" gridSize="10" guides="1" tooltips="1" connect="1" arrows="1" fold="1" page="1" pageScale="1" pageWidth="827" pageHeight="1169" math="0" shadow="0">
      <root>
        <mxCell id="yoAFPJ40MCnaRqxTh_9Z-0" />
        <mxCell id="yoAFPJ40MCnaRqxTh_9Z-1" parent="yoAFPJ40MCnaRqxTh_9Z-0" />
        <mxCell id="yoAFPJ40MCnaRqxTh_9Z-2" value="&lt;b&gt;&lt;font style=&quot;font-size: 16px;&quot;&gt;TOPO&lt;/font&gt;&lt;/b&gt;" style="text;html=1;align=center;verticalAlign=middle;whiteSpace=wrap;rounded=0;" vertex="1" parent="yoAFPJ40MCnaRqxTh_9Z-1">
          <mxGeometry x="360" y="240" width="120" height="40" as="geometry" />
        </mxCell>
        <mxCell id="yoAFPJ40MCnaRqxTh_9Z-3" value="" style="endArrow=classic;html=1;rounded=0;exitX=0.5;exitY=1;exitDx=0;exitDy=0;" edge="1" parent="yoAFPJ40MCnaRqxTh_9Z-1" source="yoAFPJ40MCnaRqxTh_9Z-2">
          <mxGeometry width="50" height="50" relative="1" as="geometry">
            <mxPoint x="179.5" y="399.5" as="sourcePoint" />
            <mxPoint x="420" y="350" as="targetPoint" />
          </mxGeometry>
        </mxCell>
        <mxCell id="yoAFPJ40MCnaRqxTh_9Z-4" value="" style="endArrow=none;html=1;rounded=0;" edge="1" parent="yoAFPJ40MCnaRqxTh_9Z-1">
          <mxGeometry width="50" height="50" relative="1" as="geometry">
            <mxPoint x="360" y="544" as="sourcePoint" />
            <mxPoint x="480" y="544" as="targetPoint" />
            <Array as="points">
              <mxPoint x="420" y="544" />
            </Array>
          </mxGeometry>
        </mxCell>
        <mxCell id="yoAFPJ40MCnaRqxTh_9Z-5" value="" style="endArrow=none;html=1;rounded=0;" edge="1" parent="yoAFPJ40MCnaRqxTh_9Z-1">
          <mxGeometry width="50" height="50" relative="1" as="geometry">
            <mxPoint x="380" y="564" as="sourcePoint" />
            <mxPoint x="460" y="564" as="targetPoint" />
            <Array as="points">
              <mxPoint x="420" y="564" />
            </Array>
          </mxGeometry>
        </mxCell>
        <mxCell id="yoAFPJ40MCnaRqxTh_9Z-6" value="" style="endArrow=none;html=1;rounded=0;strokeColor=#ADADAD;" edge="1" parent="yoAFPJ40MCnaRqxTh_9Z-1">
          <mxGeometry width="50" height="50" relative="1" as="geometry">
            <mxPoint x="400" y="584" as="sourcePoint" />
            <mxPoint x="440" y="584" as="targetPoint" />
            <Array as="points">
              <mxPoint x="420" y="584" />
            </Array>
          </mxGeometry>
        </mxCell>
        <mxCell id="yoAFPJ40MCnaRqxTh_9Z-9" value="&lt;font style=&quot;font-size: 16px;&quot;&gt;&lt;b&gt;?&lt;/b&gt;&lt;/font&gt;" style="whiteSpace=wrap;html=1;aspect=fixed;" vertex="1" parent="yoAFPJ40MCnaRqxTh_9Z-1">
          <mxGeometry x="380" y="360" width="80" height="80" as="geometry" />
        </mxCell>
        <mxCell id="yoAFPJ40MCnaRqxTh_9Z-10" value="" style="endArrow=classic;html=1;rounded=0;exitX=0.5;exitY=1;exitDx=0;exitDy=0;" edge="1" parent="yoAFPJ40MCnaRqxTh_9Z-1" source="yoAFPJ40MCnaRqxTh_9Z-9">
          <mxGeometry width="50" height="50" relative="1" as="geometry">
            <mxPoint x="399" y="540" as="sourcePoint" />
            <mxPoint x="420" y="530" as="targetPoint" />
          </mxGeometry>
        </mxCell>
        <mxCell id="poDMV0HvAAEVugNNfWh0-0" value="&lt;font style=&quot;font-size: 16px;&quot;&gt;&lt;b&gt;?&lt;/b&gt;&lt;/font&gt;" style="whiteSpace=wrap;html=1;aspect=fixed;" vertex="1" parent="yoAFPJ40MCnaRqxTh_9Z-1">
          <mxGeometry x="610" y="360" width="80" height="80" as="geometry" />
        </mxCell>
        <mxCell id="poDMV0HvAAEVugNNfWh0-1" value="" style="endArrow=classic;html=1;rounded=0;exitX=0.5;exitY=1;exitDx=0;exitDy=0;" edge="1" parent="yoAFPJ40MCnaRqxTh_9Z-1" source="poDMV0HvAAEVugNNfWh0-0">
          <mxGeometry width="50" height="50" relative="1" as="geometry">
            <mxPoint x="625" y="510" as="sourcePoint" />
            <mxPoint x="650" y="510" as="targetPoint" />
          </mxGeometry>
        </mxCell>
        <mxCell id="poDMV0HvAAEVugNNfWh0-2" value="" style="endArrow=none;html=1;rounded=0;" edge="1" parent="yoAFPJ40MCnaRqxTh_9Z-1">
          <mxGeometry width="50" height="50" relative="1" as="geometry">
            <mxPoint x="590" y="520" as="sourcePoint" />
            <mxPoint x="710" y="520" as="targetPoint" />
            <Array as="points">
              <mxPoint x="650" y="520" />
            </Array>
          </mxGeometry>
        </mxCell>
        <mxCell id="poDMV0HvAAEVugNNfWh0-3" value="" style="endArrow=none;html=1;rounded=0;" edge="1" parent="yoAFPJ40MCnaRqxTh_9Z-1">
          <mxGeometry width="50" height="50" relative="1" as="geometry">
            <mxPoint x="610" y="540" as="sourcePoint" />
            <mxPoint x="690" y="540" as="targetPoint" />
            <Array as="points">
              <mxPoint x="650" y="540" />
            </Array>
          </mxGeometry>
        </mxCell>
        <mxCell id="poDMV0HvAAEVugNNfWh0-4" value="" style="endArrow=none;html=1;rounded=0;strokeColor=#ADADAD;" edge="1" parent="yoAFPJ40MCnaRqxTh_9Z-1">
          <mxGeometry width="50" height="50" relative="1" as="geometry">
            <mxPoint x="630" y="560" as="sourcePoint" />
            <mxPoint x="670" y="560" as="targetPoint" />
            <Array as="points">
              <mxPoint x="650" y="560" />
            </Array>
          </mxGeometry>
        </mxCell>
      </root>
    </mxGraphModel>
  </diagram>
  <diagram name="Etapa 7.2" id="C_z0f9od0LIxh2UwW-8E">
    <mxGraphModel dx="1434" dy="786" grid="1" gridSize="10" guides="1" tooltips="1" connect="1" arrows="1" fold="1" page="1" pageScale="1" pageWidth="827" pageHeight="1169" math="0" shadow="0">
      <root>
        <mxCell id="Y3w2Lqsqa9RsQrb7XbH6-0" />
        <mxCell id="Y3w2Lqsqa9RsQrb7XbH6-1" parent="Y3w2Lqsqa9RsQrb7XbH6-0" />
        <mxCell id="Y3w2Lqsqa9RsQrb7XbH6-2" value="&lt;b&gt;&lt;font style=&quot;font-size: 16px;&quot;&gt;TOPO&lt;/font&gt;&lt;/b&gt;" style="text;html=1;align=center;verticalAlign=middle;whiteSpace=wrap;rounded=0;" vertex="1" parent="Y3w2Lqsqa9RsQrb7XbH6-1">
          <mxGeometry x="360" y="240" width="120" height="40" as="geometry" />
        </mxCell>
        <mxCell id="Y3w2Lqsqa9RsQrb7XbH6-3" value="" style="endArrow=classic;html=1;rounded=0;exitX=0.5;exitY=1;exitDx=0;exitDy=0;" edge="1" parent="Y3w2Lqsqa9RsQrb7XbH6-1" source="Y3w2Lqsqa9RsQrb7XbH6-2">
          <mxGeometry width="50" height="50" relative="1" as="geometry">
            <mxPoint x="179.5" y="399.5" as="sourcePoint" />
            <mxPoint x="420" y="350" as="targetPoint" />
          </mxGeometry>
        </mxCell>
        <mxCell id="Y3w2Lqsqa9RsQrb7XbH6-4" value="" style="endArrow=none;html=1;rounded=0;" edge="1" parent="Y3w2Lqsqa9RsQrb7XbH6-1">
          <mxGeometry width="50" height="50" relative="1" as="geometry">
            <mxPoint x="360" y="544" as="sourcePoint" />
            <mxPoint x="480" y="544" as="targetPoint" />
            <Array as="points">
              <mxPoint x="420" y="544" />
            </Array>
          </mxGeometry>
        </mxCell>
        <mxCell id="Y3w2Lqsqa9RsQrb7XbH6-5" value="" style="endArrow=none;html=1;rounded=0;" edge="1" parent="Y3w2Lqsqa9RsQrb7XbH6-1">
          <mxGeometry width="50" height="50" relative="1" as="geometry">
            <mxPoint x="380" y="564" as="sourcePoint" />
            <mxPoint x="460" y="564" as="targetPoint" />
            <Array as="points">
              <mxPoint x="420" y="564" />
            </Array>
          </mxGeometry>
        </mxCell>
        <mxCell id="Y3w2Lqsqa9RsQrb7XbH6-6" value="" style="endArrow=none;html=1;rounded=0;strokeColor=#ADADAD;" edge="1" parent="Y3w2Lqsqa9RsQrb7XbH6-1">
          <mxGeometry width="50" height="50" relative="1" as="geometry">
            <mxPoint x="400" y="584" as="sourcePoint" />
            <mxPoint x="440" y="584" as="targetPoint" />
            <Array as="points">
              <mxPoint x="420" y="584" />
            </Array>
          </mxGeometry>
        </mxCell>
        <mxCell id="Y3w2Lqsqa9RsQrb7XbH6-7" value="&lt;font style=&quot;font-size: 16px;&quot;&gt;&lt;b&gt;?&lt;/b&gt;&lt;/font&gt;" style="whiteSpace=wrap;html=1;aspect=fixed;" vertex="1" parent="Y3w2Lqsqa9RsQrb7XbH6-1">
          <mxGeometry x="380" y="360" width="80" height="80" as="geometry" />
        </mxCell>
        <mxCell id="Y3w2Lqsqa9RsQrb7XbH6-8" value="" style="endArrow=classic;html=1;rounded=0;exitX=0.5;exitY=1;exitDx=0;exitDy=0;" edge="1" parent="Y3w2Lqsqa9RsQrb7XbH6-1" source="Y3w2Lqsqa9RsQrb7XbH6-7">
          <mxGeometry width="50" height="50" relative="1" as="geometry">
            <mxPoint x="399" y="540" as="sourcePoint" />
            <mxPoint x="420" y="530" as="targetPoint" />
          </mxGeometry>
        </mxCell>
        <mxCell id="Y3w2Lqsqa9RsQrb7XbH6-9" value="&lt;font style=&quot;font-size: 16px;&quot;&gt;&lt;b&gt;?&lt;/b&gt;&lt;/font&gt;" style="whiteSpace=wrap;html=1;aspect=fixed;" vertex="1" parent="Y3w2Lqsqa9RsQrb7XbH6-1">
          <mxGeometry x="610" y="200" width="80" height="80" as="geometry" />
        </mxCell>
        <mxCell id="Y3w2Lqsqa9RsQrb7XbH6-10" value="" style="endArrow=classic;html=1;rounded=0;exitX=0.5;exitY=1;exitDx=0;exitDy=0;entryX=1.075;entryY=0.388;entryDx=0;entryDy=0;entryPerimeter=0;" edge="1" parent="Y3w2Lqsqa9RsQrb7XbH6-1" source="Y3w2Lqsqa9RsQrb7XbH6-9" target="Y3w2Lqsqa9RsQrb7XbH6-7">
          <mxGeometry width="50" height="50" relative="1" as="geometry">
            <mxPoint x="625" y="510" as="sourcePoint" />
            <mxPoint x="650" y="510" as="targetPoint" />
          </mxGeometry>
        </mxCell>
      </root>
    </mxGraphModel>
  </diagram>
  <diagram name="Etapa 7.3" id="ORapxT81ha_N2DDWIUg8">
    <mxGraphModel dx="1434" dy="786" grid="1" gridSize="10" guides="1" tooltips="1" connect="1" arrows="1" fold="1" page="1" pageScale="1" pageWidth="827" pageHeight="1169" math="0" shadow="0">
      <root>
        <mxCell id="BLE8dsW_PglRu-40P7VN-0" />
        <mxCell id="BLE8dsW_PglRu-40P7VN-1" parent="BLE8dsW_PglRu-40P7VN-0" />
        <mxCell id="BLE8dsW_PglRu-40P7VN-2" value="&lt;b&gt;&lt;font style=&quot;font-size: 16px;&quot;&gt;TOPO&lt;/font&gt;&lt;/b&gt;" style="text;html=1;align=center;verticalAlign=middle;whiteSpace=wrap;rounded=0;" vertex="1" parent="BLE8dsW_PglRu-40P7VN-1">
          <mxGeometry x="360" y="80" width="120" height="40" as="geometry" />
        </mxCell>
        <mxCell id="BLE8dsW_PglRu-40P7VN-3" value="" style="endArrow=classic;html=1;rounded=0;exitX=0.5;exitY=1;exitDx=0;exitDy=0;" edge="1" parent="BLE8dsW_PglRu-40P7VN-1" source="BLE8dsW_PglRu-40P7VN-2">
          <mxGeometry width="50" height="50" relative="1" as="geometry">
            <mxPoint x="179.5" y="399.5" as="sourcePoint" />
            <mxPoint x="420" y="180" as="targetPoint" />
          </mxGeometry>
        </mxCell>
        <mxCell id="BLE8dsW_PglRu-40P7VN-4" value="" style="endArrow=none;html=1;rounded=0;" edge="1" parent="BLE8dsW_PglRu-40P7VN-1">
          <mxGeometry width="50" height="50" relative="1" as="geometry">
            <mxPoint x="360" y="544" as="sourcePoint" />
            <mxPoint x="480" y="544" as="targetPoint" />
            <Array as="points">
              <mxPoint x="420" y="544" />
            </Array>
          </mxGeometry>
        </mxCell>
        <mxCell id="BLE8dsW_PglRu-40P7VN-5" value="" style="endArrow=none;html=1;rounded=0;" edge="1" parent="BLE8dsW_PglRu-40P7VN-1">
          <mxGeometry width="50" height="50" relative="1" as="geometry">
            <mxPoint x="380" y="564" as="sourcePoint" />
            <mxPoint x="460" y="564" as="targetPoint" />
            <Array as="points">
              <mxPoint x="420" y="564" />
            </Array>
          </mxGeometry>
        </mxCell>
        <mxCell id="BLE8dsW_PglRu-40P7VN-6" value="" style="endArrow=none;html=1;rounded=0;strokeColor=#ADADAD;" edge="1" parent="BLE8dsW_PglRu-40P7VN-1">
          <mxGeometry width="50" height="50" relative="1" as="geometry">
            <mxPoint x="400" y="584" as="sourcePoint" />
            <mxPoint x="440" y="584" as="targetPoint" />
            <Array as="points">
              <mxPoint x="420" y="584" />
            </Array>
          </mxGeometry>
        </mxCell>
        <mxCell id="BLE8dsW_PglRu-40P7VN-7" value="&lt;font style=&quot;font-size: 16px;&quot;&gt;&lt;b&gt;?&lt;/b&gt;&lt;/font&gt;" style="whiteSpace=wrap;html=1;aspect=fixed;" vertex="1" parent="BLE8dsW_PglRu-40P7VN-1">
          <mxGeometry x="380" y="360" width="80" height="80" as="geometry" />
        </mxCell>
        <mxCell id="BLE8dsW_PglRu-40P7VN-8" value="" style="endArrow=classic;html=1;rounded=0;exitX=0.5;exitY=1;exitDx=0;exitDy=0;" edge="1" parent="BLE8dsW_PglRu-40P7VN-1" source="BLE8dsW_PglRu-40P7VN-7">
          <mxGeometry width="50" height="50" relative="1" as="geometry">
            <mxPoint x="399" y="540" as="sourcePoint" />
            <mxPoint x="420" y="530" as="targetPoint" />
          </mxGeometry>
        </mxCell>
        <mxCell id="BLE8dsW_PglRu-40P7VN-9" value="&lt;font style=&quot;font-size: 16px;&quot;&gt;&lt;b&gt;?&lt;/b&gt;&lt;/font&gt;" style="whiteSpace=wrap;html=1;aspect=fixed;" vertex="1" parent="BLE8dsW_PglRu-40P7VN-1">
          <mxGeometry x="380" y="210" width="80" height="80" as="geometry" />
        </mxCell>
        <mxCell id="BLE8dsW_PglRu-40P7VN-10" value="" style="endArrow=classic;html=1;rounded=0;exitX=0.5;exitY=1;exitDx=0;exitDy=0;" edge="1" parent="BLE8dsW_PglRu-40P7VN-1" source="BLE8dsW_PglRu-40P7VN-9">
          <mxGeometry width="50" height="50" relative="1" as="geometry">
            <mxPoint x="625" y="510" as="sourcePoint" />
            <mxPoint x="420" y="350" as="targetPoint" />
          </mxGeometry>
        </mxCell>
      </root>
    </mxGraphModel>
  </diagram>
  <diagram name="Etapa 8.1" id="Cz2YI6mOwg6TPmclQ7aM">
    <mxGraphModel dx="1434" dy="786" grid="1" gridSize="10" guides="1" tooltips="1" connect="1" arrows="1" fold="1" page="1" pageScale="1" pageWidth="827" pageHeight="1169" math="0" shadow="0">
      <root>
        <mxCell id="hRf1yZUdpvek4XlMgUf8-0" />
        <mxCell id="hRf1yZUdpvek4XlMgUf8-1" parent="hRf1yZUdpvek4XlMgUf8-0" />
        <mxCell id="hRf1yZUdpvek4XlMgUf8-2" value="&lt;b&gt;&lt;font style=&quot;font-size: 16px;&quot;&gt;TOPO&lt;/font&gt;&lt;/b&gt;" style="text;html=1;align=center;verticalAlign=middle;whiteSpace=wrap;rounded=0;" vertex="1" parent="hRf1yZUdpvek4XlMgUf8-1">
          <mxGeometry x="360" y="80" width="120" height="40" as="geometry" />
        </mxCell>
        <mxCell id="hRf1yZUdpvek4XlMgUf8-3" value="" style="endArrow=classic;html=1;rounded=0;exitX=0.5;exitY=1;exitDx=0;exitDy=0;" edge="1" parent="hRf1yZUdpvek4XlMgUf8-1" source="hRf1yZUdpvek4XlMgUf8-2">
          <mxGeometry width="50" height="50" relative="1" as="geometry">
            <mxPoint x="179.5" y="399.5" as="sourcePoint" />
            <mxPoint x="420" y="180" as="targetPoint" />
          </mxGeometry>
        </mxCell>
        <mxCell id="hRf1yZUdpvek4XlMgUf8-4" value="" style="endArrow=none;html=1;rounded=0;" edge="1" parent="hRf1yZUdpvek4XlMgUf8-1">
          <mxGeometry width="50" height="50" relative="1" as="geometry">
            <mxPoint x="360" y="544" as="sourcePoint" />
            <mxPoint x="480" y="544" as="targetPoint" />
            <Array as="points">
              <mxPoint x="420" y="544" />
            </Array>
          </mxGeometry>
        </mxCell>
        <mxCell id="hRf1yZUdpvek4XlMgUf8-5" value="" style="endArrow=none;html=1;rounded=0;" edge="1" parent="hRf1yZUdpvek4XlMgUf8-1">
          <mxGeometry width="50" height="50" relative="1" as="geometry">
            <mxPoint x="380" y="564" as="sourcePoint" />
            <mxPoint x="460" y="564" as="targetPoint" />
            <Array as="points">
              <mxPoint x="420" y="564" />
            </Array>
          </mxGeometry>
        </mxCell>
        <mxCell id="hRf1yZUdpvek4XlMgUf8-6" value="" style="endArrow=none;html=1;rounded=0;strokeColor=#ADADAD;" edge="1" parent="hRf1yZUdpvek4XlMgUf8-1">
          <mxGeometry width="50" height="50" relative="1" as="geometry">
            <mxPoint x="400" y="584" as="sourcePoint" />
            <mxPoint x="440" y="584" as="targetPoint" />
            <Array as="points">
              <mxPoint x="420" y="584" />
            </Array>
          </mxGeometry>
        </mxCell>
        <mxCell id="hRf1yZUdpvek4XlMgUf8-7" value="&lt;font style=&quot;font-size: 16px;&quot;&gt;&lt;b&gt;?&lt;/b&gt;&lt;/font&gt;" style="whiteSpace=wrap;html=1;aspect=fixed;" vertex="1" parent="hRf1yZUdpvek4XlMgUf8-1">
          <mxGeometry x="380" y="360" width="80" height="80" as="geometry" />
        </mxCell>
        <mxCell id="hRf1yZUdpvek4XlMgUf8-8" value="" style="endArrow=classic;html=1;rounded=0;exitX=0.5;exitY=1;exitDx=0;exitDy=0;" edge="1" parent="hRf1yZUdpvek4XlMgUf8-1" source="hRf1yZUdpvek4XlMgUf8-7">
          <mxGeometry width="50" height="50" relative="1" as="geometry">
            <mxPoint x="399" y="540" as="sourcePoint" />
            <mxPoint x="420" y="530" as="targetPoint" />
          </mxGeometry>
        </mxCell>
        <mxCell id="hRf1yZUdpvek4XlMgUf8-9" value="&lt;font style=&quot;font-size: 16px;&quot;&gt;&lt;b&gt;?&lt;/b&gt;&lt;/font&gt;" style="whiteSpace=wrap;html=1;aspect=fixed;" vertex="1" parent="hRf1yZUdpvek4XlMgUf8-1">
          <mxGeometry x="380" y="210" width="80" height="80" as="geometry" />
        </mxCell>
        <mxCell id="hRf1yZUdpvek4XlMgUf8-10" value="" style="endArrow=classic;html=1;rounded=0;exitX=0.5;exitY=1;exitDx=0;exitDy=0;" edge="1" parent="hRf1yZUdpvek4XlMgUf8-1" source="hRf1yZUdpvek4XlMgUf8-9">
          <mxGeometry width="50" height="50" relative="1" as="geometry">
            <mxPoint x="625" y="510" as="sourcePoint" />
            <mxPoint x="420" y="350" as="targetPoint" />
          </mxGeometry>
        </mxCell>
        <mxCell id="S7EMz6eZRtlzjeVFkzQk-0" value="&lt;font style=&quot;font-size: 16px;&quot;&gt;&lt;b&gt;?&lt;/b&gt;&lt;/font&gt;" style="whiteSpace=wrap;html=1;aspect=fixed;" vertex="1" parent="hRf1yZUdpvek4XlMgUf8-1">
          <mxGeometry x="530" y="120" width="80" height="80" as="geometry" />
        </mxCell>
        <mxCell id="S7EMz6eZRtlzjeVFkzQk-1" value="" style="endArrow=classic;html=1;rounded=0;exitX=0.5;exitY=1;exitDx=0;exitDy=0;" edge="1" parent="hRf1yZUdpvek4XlMgUf8-1" source="S7EMz6eZRtlzjeVFkzQk-0">
          <mxGeometry width="50" height="50" relative="1" as="geometry">
            <mxPoint x="545" y="270" as="sourcePoint" />
            <mxPoint x="570" y="270" as="targetPoint" />
          </mxGeometry>
        </mxCell>
        <mxCell id="S7EMz6eZRtlzjeVFkzQk-2" value="" style="endArrow=none;html=1;rounded=0;" edge="1" parent="hRf1yZUdpvek4XlMgUf8-1">
          <mxGeometry width="50" height="50" relative="1" as="geometry">
            <mxPoint x="510" y="280" as="sourcePoint" />
            <mxPoint x="630" y="280" as="targetPoint" />
            <Array as="points">
              <mxPoint x="570" y="280" />
            </Array>
          </mxGeometry>
        </mxCell>
        <mxCell id="S7EMz6eZRtlzjeVFkzQk-3" value="" style="endArrow=none;html=1;rounded=0;" edge="1" parent="hRf1yZUdpvek4XlMgUf8-1">
          <mxGeometry width="50" height="50" relative="1" as="geometry">
            <mxPoint x="530" y="300" as="sourcePoint" />
            <mxPoint x="610" y="300" as="targetPoint" />
            <Array as="points">
              <mxPoint x="570" y="300" />
            </Array>
          </mxGeometry>
        </mxCell>
        <mxCell id="S7EMz6eZRtlzjeVFkzQk-4" value="" style="endArrow=none;html=1;rounded=0;strokeColor=#ADADAD;" edge="1" parent="hRf1yZUdpvek4XlMgUf8-1">
          <mxGeometry width="50" height="50" relative="1" as="geometry">
            <mxPoint x="550" y="320" as="sourcePoint" />
            <mxPoint x="590" y="320" as="targetPoint" />
            <Array as="points">
              <mxPoint x="570" y="320" />
            </Array>
          </mxGeometry>
        </mxCell>
      </root>
    </mxGraphModel>
  </diagram>
  <diagram name="Etapa 8.2" id="YUO_LdBkwchAAVhLDUgO">
    <mxGraphModel dx="1434" dy="786" grid="1" gridSize="10" guides="1" tooltips="1" connect="1" arrows="1" fold="1" page="1" pageScale="1" pageWidth="827" pageHeight="1169" math="0" shadow="0">
      <root>
        <mxCell id="YRIJQrXKpNb9c627of_T-0" />
        <mxCell id="YRIJQrXKpNb9c627of_T-1" parent="YRIJQrXKpNb9c627of_T-0" />
        <mxCell id="YRIJQrXKpNb9c627of_T-2" value="&lt;b&gt;&lt;font style=&quot;font-size: 16px;&quot;&gt;TOPO&lt;/font&gt;&lt;/b&gt;" style="text;html=1;align=center;verticalAlign=middle;whiteSpace=wrap;rounded=0;" vertex="1" parent="YRIJQrXKpNb9c627of_T-1">
          <mxGeometry x="360" y="80" width="120" height="40" as="geometry" />
        </mxCell>
        <mxCell id="YRIJQrXKpNb9c627of_T-3" value="" style="endArrow=classic;html=1;rounded=0;exitX=0.5;exitY=1;exitDx=0;exitDy=0;" edge="1" parent="YRIJQrXKpNb9c627of_T-1" source="YRIJQrXKpNb9c627of_T-2">
          <mxGeometry width="50" height="50" relative="1" as="geometry">
            <mxPoint x="179.5" y="399.5" as="sourcePoint" />
            <mxPoint x="420" y="180" as="targetPoint" />
          </mxGeometry>
        </mxCell>
        <mxCell id="YRIJQrXKpNb9c627of_T-4" value="" style="endArrow=none;html=1;rounded=0;" edge="1" parent="YRIJQrXKpNb9c627of_T-1">
          <mxGeometry width="50" height="50" relative="1" as="geometry">
            <mxPoint x="360" y="544" as="sourcePoint" />
            <mxPoint x="480" y="544" as="targetPoint" />
            <Array as="points">
              <mxPoint x="420" y="544" />
            </Array>
          </mxGeometry>
        </mxCell>
        <mxCell id="YRIJQrXKpNb9c627of_T-5" value="" style="endArrow=none;html=1;rounded=0;" edge="1" parent="YRIJQrXKpNb9c627of_T-1">
          <mxGeometry width="50" height="50" relative="1" as="geometry">
            <mxPoint x="380" y="564" as="sourcePoint" />
            <mxPoint x="460" y="564" as="targetPoint" />
            <Array as="points">
              <mxPoint x="420" y="564" />
            </Array>
          </mxGeometry>
        </mxCell>
        <mxCell id="YRIJQrXKpNb9c627of_T-6" value="" style="endArrow=none;html=1;rounded=0;strokeColor=#ADADAD;" edge="1" parent="YRIJQrXKpNb9c627of_T-1">
          <mxGeometry width="50" height="50" relative="1" as="geometry">
            <mxPoint x="400" y="584" as="sourcePoint" />
            <mxPoint x="440" y="584" as="targetPoint" />
            <Array as="points">
              <mxPoint x="420" y="584" />
            </Array>
          </mxGeometry>
        </mxCell>
        <mxCell id="YRIJQrXKpNb9c627of_T-7" value="&lt;font style=&quot;font-size: 16px;&quot;&gt;&lt;b&gt;?&lt;/b&gt;&lt;/font&gt;" style="whiteSpace=wrap;html=1;aspect=fixed;" vertex="1" parent="YRIJQrXKpNb9c627of_T-1">
          <mxGeometry x="380" y="360" width="80" height="80" as="geometry" />
        </mxCell>
        <mxCell id="YRIJQrXKpNb9c627of_T-8" value="" style="endArrow=classic;html=1;rounded=0;exitX=0.5;exitY=1;exitDx=0;exitDy=0;" edge="1" parent="YRIJQrXKpNb9c627of_T-1" source="YRIJQrXKpNb9c627of_T-7">
          <mxGeometry width="50" height="50" relative="1" as="geometry">
            <mxPoint x="399" y="540" as="sourcePoint" />
            <mxPoint x="420" y="530" as="targetPoint" />
          </mxGeometry>
        </mxCell>
        <mxCell id="YRIJQrXKpNb9c627of_T-9" value="&lt;font style=&quot;font-size: 16px;&quot;&gt;&lt;b&gt;?&lt;/b&gt;&lt;/font&gt;" style="whiteSpace=wrap;html=1;aspect=fixed;" vertex="1" parent="YRIJQrXKpNb9c627of_T-1">
          <mxGeometry x="380" y="210" width="80" height="80" as="geometry" />
        </mxCell>
        <mxCell id="YRIJQrXKpNb9c627of_T-10" value="" style="endArrow=classic;html=1;rounded=0;exitX=0.5;exitY=1;exitDx=0;exitDy=0;" edge="1" parent="YRIJQrXKpNb9c627of_T-1" source="YRIJQrXKpNb9c627of_T-9">
          <mxGeometry width="50" height="50" relative="1" as="geometry">
            <mxPoint x="625" y="510" as="sourcePoint" />
            <mxPoint x="420" y="350" as="targetPoint" />
          </mxGeometry>
        </mxCell>
        <mxCell id="YRIJQrXKpNb9c627of_T-11" value="&lt;font style=&quot;font-size: 16px;&quot;&gt;&lt;b&gt;?&lt;/b&gt;&lt;/font&gt;" style="whiteSpace=wrap;html=1;aspect=fixed;" vertex="1" parent="YRIJQrXKpNb9c627of_T-1">
          <mxGeometry x="550" y="80" width="80" height="80" as="geometry" />
        </mxCell>
        <mxCell id="YRIJQrXKpNb9c627of_T-12" value="" style="endArrow=classic;html=1;rounded=0;exitX=0.5;exitY=1;exitDx=0;exitDy=0;entryX=1.05;entryY=0.425;entryDx=0;entryDy=0;entryPerimeter=0;" edge="1" parent="YRIJQrXKpNb9c627of_T-1" source="YRIJQrXKpNb9c627of_T-11" target="YRIJQrXKpNb9c627of_T-9">
          <mxGeometry width="50" height="50" relative="1" as="geometry">
            <mxPoint x="545" y="270" as="sourcePoint" />
            <mxPoint x="570" y="270" as="targetPoint" />
          </mxGeometry>
        </mxCell>
      </root>
    </mxGraphModel>
  </diagram>
  <diagram name="Etapa 8.3" id="xQNBluytVdmefe1vppX2">
    <mxGraphModel dx="1434" dy="786" grid="1" gridSize="10" guides="1" tooltips="1" connect="1" arrows="1" fold="1" page="1" pageScale="1" pageWidth="827" pageHeight="1169" math="0" shadow="0">
      <root>
        <mxCell id="9Kar47APpzzg0wuLAjoD-0" />
        <mxCell id="9Kar47APpzzg0wuLAjoD-1" parent="9Kar47APpzzg0wuLAjoD-0" />
        <mxCell id="9Kar47APpzzg0wuLAjoD-2" value="&lt;b&gt;&lt;font style=&quot;font-size: 16px;&quot;&gt;TOPO&lt;/font&gt;&lt;/b&gt;" style="text;html=1;align=center;verticalAlign=middle;whiteSpace=wrap;rounded=0;" vertex="1" parent="9Kar47APpzzg0wuLAjoD-1">
          <mxGeometry x="360" y="30" width="120" height="40" as="geometry" />
        </mxCell>
        <mxCell id="9Kar47APpzzg0wuLAjoD-3" value="" style="endArrow=classic;html=1;rounded=0;exitX=0.5;exitY=1;exitDx=0;exitDy=0;" edge="1" parent="9Kar47APpzzg0wuLAjoD-1" source="9Kar47APpzzg0wuLAjoD-2">
          <mxGeometry width="50" height="50" relative="1" as="geometry">
            <mxPoint x="179.5" y="399.5" as="sourcePoint" />
            <mxPoint x="420" y="150" as="targetPoint" />
          </mxGeometry>
        </mxCell>
        <mxCell id="9Kar47APpzzg0wuLAjoD-4" value="" style="endArrow=none;html=1;rounded=0;" edge="1" parent="9Kar47APpzzg0wuLAjoD-1">
          <mxGeometry width="50" height="50" relative="1" as="geometry">
            <mxPoint x="360" y="640" as="sourcePoint" />
            <mxPoint x="480" y="640" as="targetPoint" />
            <Array as="points">
              <mxPoint x="420" y="640" />
            </Array>
          </mxGeometry>
        </mxCell>
        <mxCell id="9Kar47APpzzg0wuLAjoD-5" value="" style="endArrow=none;html=1;rounded=0;" edge="1" parent="9Kar47APpzzg0wuLAjoD-1">
          <mxGeometry width="50" height="50" relative="1" as="geometry">
            <mxPoint x="380" y="660" as="sourcePoint" />
            <mxPoint x="460" y="660" as="targetPoint" />
            <Array as="points">
              <mxPoint x="420" y="660" />
            </Array>
          </mxGeometry>
        </mxCell>
        <mxCell id="9Kar47APpzzg0wuLAjoD-6" value="" style="endArrow=none;html=1;rounded=0;strokeColor=#ADADAD;" edge="1" parent="9Kar47APpzzg0wuLAjoD-1">
          <mxGeometry width="50" height="50" relative="1" as="geometry">
            <mxPoint x="400" y="680" as="sourcePoint" />
            <mxPoint x="440" y="680" as="targetPoint" />
            <Array as="points">
              <mxPoint x="420" y="680" />
            </Array>
          </mxGeometry>
        </mxCell>
        <mxCell id="9Kar47APpzzg0wuLAjoD-7" value="&lt;font style=&quot;font-size: 16px;&quot;&gt;&lt;b&gt;?&lt;/b&gt;&lt;/font&gt;" style="whiteSpace=wrap;html=1;aspect=fixed;" vertex="1" parent="9Kar47APpzzg0wuLAjoD-1">
          <mxGeometry x="380" y="505" width="80" height="80" as="geometry" />
        </mxCell>
        <mxCell id="9Kar47APpzzg0wuLAjoD-9" value="&lt;font style=&quot;font-size: 16px;&quot;&gt;&lt;b&gt;?&lt;/b&gt;&lt;/font&gt;" style="whiteSpace=wrap;html=1;aspect=fixed;" vertex="1" parent="9Kar47APpzzg0wuLAjoD-1">
          <mxGeometry x="380" y="340" width="80" height="80" as="geometry" />
        </mxCell>
        <mxCell id="9Kar47APpzzg0wuLAjoD-10" value="" style="endArrow=classic;html=1;rounded=0;exitX=0.5;exitY=1;exitDx=0;exitDy=0;" edge="1" parent="9Kar47APpzzg0wuLAjoD-1" source="9Kar47APpzzg0wuLAjoD-9">
          <mxGeometry width="50" height="50" relative="1" as="geometry">
            <mxPoint x="625" y="510" as="sourcePoint" />
            <mxPoint x="420" y="500" as="targetPoint" />
          </mxGeometry>
        </mxCell>
        <mxCell id="9Kar47APpzzg0wuLAjoD-11" value="&lt;font style=&quot;font-size: 16px;&quot;&gt;&lt;b&gt;?&lt;/b&gt;&lt;/font&gt;" style="whiteSpace=wrap;html=1;aspect=fixed;" vertex="1" parent="9Kar47APpzzg0wuLAjoD-1">
          <mxGeometry x="380" y="160" width="80" height="80" as="geometry" />
        </mxCell>
        <mxCell id="9Kar47APpzzg0wuLAjoD-12" value="" style="endArrow=classic;html=1;rounded=0;exitX=0.5;exitY=1;exitDx=0;exitDy=0;" edge="1" parent="9Kar47APpzzg0wuLAjoD-1" source="9Kar47APpzzg0wuLAjoD-11">
          <mxGeometry width="50" height="50" relative="1" as="geometry">
            <mxPoint x="545" y="270" as="sourcePoint" />
            <mxPoint x="420" y="320" as="targetPoint" />
          </mxGeometry>
        </mxCell>
        <mxCell id="34cMZCbCB-yLIUsrsbX7-0" value="" style="endArrow=classic;html=1;rounded=0;exitX=0.5;exitY=1;exitDx=0;exitDy=0;" edge="1" parent="9Kar47APpzzg0wuLAjoD-1" source="9Kar47APpzzg0wuLAjoD-7">
          <mxGeometry width="50" height="50" relative="1" as="geometry">
            <mxPoint x="395" y="635" as="sourcePoint" />
            <mxPoint x="420" y="640" as="targetPoint" />
          </mxGeometry>
        </mxCell>
      </root>
    </mxGraphModel>
  </diagram>
  <diagram name="Etapa 9.1" id="aZmKvzt8l9dRzJ2haXw5">
    <mxGraphModel dx="1434" dy="786" grid="1" gridSize="10" guides="1" tooltips="1" connect="1" arrows="1" fold="1" page="1" pageScale="1" pageWidth="827" pageHeight="1169" math="0" shadow="0">
      <root>
        <mxCell id="tcjfZaqcN8Fb_sCnO3v3-0" />
        <mxCell id="tcjfZaqcN8Fb_sCnO3v3-1" parent="tcjfZaqcN8Fb_sCnO3v3-0" />
        <mxCell id="tcjfZaqcN8Fb_sCnO3v3-2" value="&lt;b&gt;&lt;font style=&quot;font-size: 16px;&quot;&gt;TOPO&lt;/font&gt;&lt;/b&gt;" style="text;html=1;align=center;verticalAlign=middle;whiteSpace=wrap;rounded=0;" vertex="1" parent="tcjfZaqcN8Fb_sCnO3v3-1">
          <mxGeometry x="360" y="30" width="120" height="40" as="geometry" />
        </mxCell>
        <mxCell id="tcjfZaqcN8Fb_sCnO3v3-3" value="" style="endArrow=classic;html=1;rounded=0;exitX=0.5;exitY=1;exitDx=0;exitDy=0;" edge="1" parent="tcjfZaqcN8Fb_sCnO3v3-1" source="tcjfZaqcN8Fb_sCnO3v3-2">
          <mxGeometry width="50" height="50" relative="1" as="geometry">
            <mxPoint x="179.5" y="399.5" as="sourcePoint" />
            <mxPoint x="420" y="150" as="targetPoint" />
          </mxGeometry>
        </mxCell>
        <mxCell id="tcjfZaqcN8Fb_sCnO3v3-4" value="" style="endArrow=none;html=1;rounded=0;" edge="1" parent="tcjfZaqcN8Fb_sCnO3v3-1">
          <mxGeometry width="50" height="50" relative="1" as="geometry">
            <mxPoint x="360" y="640" as="sourcePoint" />
            <mxPoint x="480" y="640" as="targetPoint" />
            <Array as="points">
              <mxPoint x="420" y="640" />
            </Array>
          </mxGeometry>
        </mxCell>
        <mxCell id="tcjfZaqcN8Fb_sCnO3v3-5" value="" style="endArrow=none;html=1;rounded=0;" edge="1" parent="tcjfZaqcN8Fb_sCnO3v3-1">
          <mxGeometry width="50" height="50" relative="1" as="geometry">
            <mxPoint x="380" y="660" as="sourcePoint" />
            <mxPoint x="460" y="660" as="targetPoint" />
            <Array as="points">
              <mxPoint x="420" y="660" />
            </Array>
          </mxGeometry>
        </mxCell>
        <mxCell id="tcjfZaqcN8Fb_sCnO3v3-6" value="" style="endArrow=none;html=1;rounded=0;strokeColor=#ADADAD;" edge="1" parent="tcjfZaqcN8Fb_sCnO3v3-1">
          <mxGeometry width="50" height="50" relative="1" as="geometry">
            <mxPoint x="400" y="680" as="sourcePoint" />
            <mxPoint x="440" y="680" as="targetPoint" />
            <Array as="points">
              <mxPoint x="420" y="680" />
            </Array>
          </mxGeometry>
        </mxCell>
        <mxCell id="tcjfZaqcN8Fb_sCnO3v3-7" value="&lt;font style=&quot;font-size: 16px;&quot;&gt;&lt;b&gt;?&lt;/b&gt;&lt;/font&gt;" style="whiteSpace=wrap;html=1;aspect=fixed;" vertex="1" parent="tcjfZaqcN8Fb_sCnO3v3-1">
          <mxGeometry x="380" y="505" width="80" height="80" as="geometry" />
        </mxCell>
        <mxCell id="tcjfZaqcN8Fb_sCnO3v3-8" value="&lt;font style=&quot;font-size: 16px;&quot;&gt;&lt;b&gt;?&lt;/b&gt;&lt;/font&gt;" style="whiteSpace=wrap;html=1;aspect=fixed;" vertex="1" parent="tcjfZaqcN8Fb_sCnO3v3-1">
          <mxGeometry x="380" y="340" width="80" height="80" as="geometry" />
        </mxCell>
        <mxCell id="tcjfZaqcN8Fb_sCnO3v3-9" value="" style="endArrow=classic;html=1;rounded=0;exitX=0.5;exitY=1;exitDx=0;exitDy=0;" edge="1" parent="tcjfZaqcN8Fb_sCnO3v3-1" source="tcjfZaqcN8Fb_sCnO3v3-8">
          <mxGeometry width="50" height="50" relative="1" as="geometry">
            <mxPoint x="625" y="510" as="sourcePoint" />
            <mxPoint x="420" y="500" as="targetPoint" />
          </mxGeometry>
        </mxCell>
        <mxCell id="tcjfZaqcN8Fb_sCnO3v3-10" value="&lt;font style=&quot;font-size: 16px;&quot;&gt;&lt;b&gt;?&lt;/b&gt;&lt;/font&gt;" style="whiteSpace=wrap;html=1;aspect=fixed;" vertex="1" parent="tcjfZaqcN8Fb_sCnO3v3-1">
          <mxGeometry x="380" y="160" width="80" height="80" as="geometry" />
        </mxCell>
        <mxCell id="tcjfZaqcN8Fb_sCnO3v3-11" value="" style="endArrow=classic;html=1;rounded=0;exitX=0.5;exitY=1;exitDx=0;exitDy=0;" edge="1" parent="tcjfZaqcN8Fb_sCnO3v3-1" source="tcjfZaqcN8Fb_sCnO3v3-10">
          <mxGeometry width="50" height="50" relative="1" as="geometry">
            <mxPoint x="545" y="270" as="sourcePoint" />
            <mxPoint x="420" y="320" as="targetPoint" />
          </mxGeometry>
        </mxCell>
        <mxCell id="tcjfZaqcN8Fb_sCnO3v3-12" value="" style="endArrow=classic;html=1;rounded=0;exitX=0.5;exitY=1;exitDx=0;exitDy=0;" edge="1" parent="tcjfZaqcN8Fb_sCnO3v3-1" source="tcjfZaqcN8Fb_sCnO3v3-7">
          <mxGeometry width="50" height="50" relative="1" as="geometry">
            <mxPoint x="395" y="635" as="sourcePoint" />
            <mxPoint x="420" y="640" as="targetPoint" />
          </mxGeometry>
        </mxCell>
        <mxCell id="4nlA--Aj7IjLb4Gwy58W-0" value="&lt;font style=&quot;font-size: 16px;&quot;&gt;&lt;b&gt;AUX&lt;/b&gt;&lt;/font&gt;" style="text;html=1;align=center;verticalAlign=middle;whiteSpace=wrap;rounded=0;" vertex="1" parent="tcjfZaqcN8Fb_sCnO3v3-1">
          <mxGeometry x="620" y="35" width="60" height="30" as="geometry" />
        </mxCell>
        <mxCell id="4nlA--Aj7IjLb4Gwy58W-1" value="" style="endArrow=classic;html=1;rounded=0;exitX=0.5;exitY=1;exitDx=0;exitDy=0;" edge="1" parent="tcjfZaqcN8Fb_sCnO3v3-1" source="4nlA--Aj7IjLb4Gwy58W-0">
          <mxGeometry width="50" height="50" relative="1" as="geometry">
            <mxPoint x="570" y="130" as="sourcePoint" />
            <mxPoint x="470" y="190" as="targetPoint" />
          </mxGeometry>
        </mxCell>
      </root>
    </mxGraphModel>
  </diagram>
  <diagram name="Etapa 9.2" id="lxZtBoLnP0rdEZltasw5">
    <mxGraphModel dx="1434" dy="786" grid="1" gridSize="10" guides="1" tooltips="1" connect="1" arrows="1" fold="1" page="1" pageScale="1" pageWidth="827" pageHeight="1169" math="0" shadow="0">
      <root>
        <mxCell id="UIqh2Qq2TnPetFezSOXL-0" />
        <mxCell id="UIqh2Qq2TnPetFezSOXL-1" parent="UIqh2Qq2TnPetFezSOXL-0" />
        <mxCell id="UIqh2Qq2TnPetFezSOXL-2" value="&lt;b&gt;&lt;font style=&quot;font-size: 16px;&quot;&gt;TOPO&lt;/font&gt;&lt;/b&gt;" style="text;html=1;align=center;verticalAlign=middle;whiteSpace=wrap;rounded=0;" vertex="1" parent="UIqh2Qq2TnPetFezSOXL-1">
          <mxGeometry x="170" y="240" width="120" height="40" as="geometry" />
        </mxCell>
        <mxCell id="UIqh2Qq2TnPetFezSOXL-3" value="" style="endArrow=classic;html=1;rounded=0;exitX=0.5;exitY=1;exitDx=0;exitDy=0;" edge="1" parent="UIqh2Qq2TnPetFezSOXL-1" source="UIqh2Qq2TnPetFezSOXL-2">
          <mxGeometry width="50" height="50" relative="1" as="geometry">
            <mxPoint x="160" y="430" as="sourcePoint" />
            <mxPoint x="370" y="360" as="targetPoint" />
          </mxGeometry>
        </mxCell>
        <mxCell id="UIqh2Qq2TnPetFezSOXL-4" value="" style="endArrow=none;html=1;rounded=0;" edge="1" parent="UIqh2Qq2TnPetFezSOXL-1">
          <mxGeometry width="50" height="50" relative="1" as="geometry">
            <mxPoint x="360" y="640" as="sourcePoint" />
            <mxPoint x="480" y="640" as="targetPoint" />
            <Array as="points">
              <mxPoint x="420" y="640" />
            </Array>
          </mxGeometry>
        </mxCell>
        <mxCell id="UIqh2Qq2TnPetFezSOXL-5" value="" style="endArrow=none;html=1;rounded=0;" edge="1" parent="UIqh2Qq2TnPetFezSOXL-1">
          <mxGeometry width="50" height="50" relative="1" as="geometry">
            <mxPoint x="380" y="660" as="sourcePoint" />
            <mxPoint x="460" y="660" as="targetPoint" />
            <Array as="points">
              <mxPoint x="420" y="660" />
            </Array>
          </mxGeometry>
        </mxCell>
        <mxCell id="UIqh2Qq2TnPetFezSOXL-6" value="" style="endArrow=none;html=1;rounded=0;strokeColor=#ADADAD;" edge="1" parent="UIqh2Qq2TnPetFezSOXL-1">
          <mxGeometry width="50" height="50" relative="1" as="geometry">
            <mxPoint x="400" y="680" as="sourcePoint" />
            <mxPoint x="440" y="680" as="targetPoint" />
            <Array as="points">
              <mxPoint x="420" y="680" />
            </Array>
          </mxGeometry>
        </mxCell>
        <mxCell id="UIqh2Qq2TnPetFezSOXL-7" value="&lt;font style=&quot;font-size: 16px;&quot;&gt;&lt;b&gt;?&lt;/b&gt;&lt;/font&gt;" style="whiteSpace=wrap;html=1;aspect=fixed;" vertex="1" parent="UIqh2Qq2TnPetFezSOXL-1">
          <mxGeometry x="380" y="505" width="80" height="80" as="geometry" />
        </mxCell>
        <mxCell id="UIqh2Qq2TnPetFezSOXL-8" value="&lt;font style=&quot;font-size: 16px;&quot;&gt;&lt;b&gt;?&lt;/b&gt;&lt;/font&gt;" style="whiteSpace=wrap;html=1;aspect=fixed;" vertex="1" parent="UIqh2Qq2TnPetFezSOXL-1">
          <mxGeometry x="380" y="340" width="80" height="80" as="geometry" />
        </mxCell>
        <mxCell id="UIqh2Qq2TnPetFezSOXL-9" value="" style="endArrow=classic;html=1;rounded=0;exitX=0.5;exitY=1;exitDx=0;exitDy=0;" edge="1" parent="UIqh2Qq2TnPetFezSOXL-1" source="UIqh2Qq2TnPetFezSOXL-8">
          <mxGeometry width="50" height="50" relative="1" as="geometry">
            <mxPoint x="625" y="510" as="sourcePoint" />
            <mxPoint x="420" y="500" as="targetPoint" />
          </mxGeometry>
        </mxCell>
        <mxCell id="UIqh2Qq2TnPetFezSOXL-10" value="&lt;font style=&quot;font-size: 16px;&quot;&gt;&lt;b&gt;?&lt;/b&gt;&lt;/font&gt;" style="whiteSpace=wrap;html=1;aspect=fixed;" vertex="1" parent="UIqh2Qq2TnPetFezSOXL-1">
          <mxGeometry x="380" y="160" width="80" height="80" as="geometry" />
        </mxCell>
        <mxCell id="UIqh2Qq2TnPetFezSOXL-11" value="" style="endArrow=classic;html=1;rounded=0;exitX=0.5;exitY=1;exitDx=0;exitDy=0;" edge="1" parent="UIqh2Qq2TnPetFezSOXL-1" source="UIqh2Qq2TnPetFezSOXL-10">
          <mxGeometry width="50" height="50" relative="1" as="geometry">
            <mxPoint x="545" y="270" as="sourcePoint" />
            <mxPoint x="420" y="320" as="targetPoint" />
          </mxGeometry>
        </mxCell>
        <mxCell id="UIqh2Qq2TnPetFezSOXL-12" value="" style="endArrow=classic;html=1;rounded=0;exitX=0.5;exitY=1;exitDx=0;exitDy=0;" edge="1" parent="UIqh2Qq2TnPetFezSOXL-1" source="UIqh2Qq2TnPetFezSOXL-7">
          <mxGeometry width="50" height="50" relative="1" as="geometry">
            <mxPoint x="395" y="635" as="sourcePoint" />
            <mxPoint x="420" y="640" as="targetPoint" />
          </mxGeometry>
        </mxCell>
        <mxCell id="UIqh2Qq2TnPetFezSOXL-13" value="&lt;font style=&quot;font-size: 16px;&quot;&gt;&lt;b&gt;AUX&lt;/b&gt;&lt;/font&gt;" style="text;html=1;align=center;verticalAlign=middle;whiteSpace=wrap;rounded=0;" vertex="1" parent="UIqh2Qq2TnPetFezSOXL-1">
          <mxGeometry x="620" y="35" width="60" height="30" as="geometry" />
        </mxCell>
        <mxCell id="UIqh2Qq2TnPetFezSOXL-14" value="" style="endArrow=classic;html=1;rounded=0;exitX=0.5;exitY=1;exitDx=0;exitDy=0;" edge="1" parent="UIqh2Qq2TnPetFezSOXL-1" source="UIqh2Qq2TnPetFezSOXL-13">
          <mxGeometry width="50" height="50" relative="1" as="geometry">
            <mxPoint x="570" y="130" as="sourcePoint" />
            <mxPoint x="470" y="190" as="targetPoint" />
          </mxGeometry>
        </mxCell>
      </root>
    </mxGraphModel>
  </diagram>
  <diagram name="Etapa 9.3" id="eBiDxxIHC4vGXLWU2z8a">
    <mxGraphModel dx="1434" dy="786" grid="1" gridSize="10" guides="1" tooltips="1" connect="1" arrows="1" fold="1" page="1" pageScale="1" pageWidth="827" pageHeight="1169" math="0" shadow="0">
      <root>
        <mxCell id="6aiq38XQWXsmM9zVfiI1-0" />
        <mxCell id="6aiq38XQWXsmM9zVfiI1-1" parent="6aiq38XQWXsmM9zVfiI1-0" />
        <mxCell id="6aiq38XQWXsmM9zVfiI1-2" value="&lt;b&gt;&lt;font style=&quot;font-size: 16px;&quot;&gt;TOPO&lt;/font&gt;&lt;/b&gt;" style="text;html=1;align=center;verticalAlign=middle;whiteSpace=wrap;rounded=0;" vertex="1" parent="6aiq38XQWXsmM9zVfiI1-1">
          <mxGeometry x="170" y="240" width="120" height="40" as="geometry" />
        </mxCell>
        <mxCell id="6aiq38XQWXsmM9zVfiI1-3" value="" style="endArrow=classic;html=1;rounded=0;exitX=0.5;exitY=1;exitDx=0;exitDy=0;" edge="1" parent="6aiq38XQWXsmM9zVfiI1-1" source="6aiq38XQWXsmM9zVfiI1-2">
          <mxGeometry width="50" height="50" relative="1" as="geometry">
            <mxPoint x="160" y="430" as="sourcePoint" />
            <mxPoint x="370" y="360" as="targetPoint" />
          </mxGeometry>
        </mxCell>
        <mxCell id="6aiq38XQWXsmM9zVfiI1-4" value="" style="endArrow=none;html=1;rounded=0;" edge="1" parent="6aiq38XQWXsmM9zVfiI1-1">
          <mxGeometry width="50" height="50" relative="1" as="geometry">
            <mxPoint x="360" y="640" as="sourcePoint" />
            <mxPoint x="480" y="640" as="targetPoint" />
            <Array as="points">
              <mxPoint x="420" y="640" />
            </Array>
          </mxGeometry>
        </mxCell>
        <mxCell id="6aiq38XQWXsmM9zVfiI1-5" value="" style="endArrow=none;html=1;rounded=0;" edge="1" parent="6aiq38XQWXsmM9zVfiI1-1">
          <mxGeometry width="50" height="50" relative="1" as="geometry">
            <mxPoint x="380" y="660" as="sourcePoint" />
            <mxPoint x="460" y="660" as="targetPoint" />
            <Array as="points">
              <mxPoint x="420" y="660" />
            </Array>
          </mxGeometry>
        </mxCell>
        <mxCell id="6aiq38XQWXsmM9zVfiI1-6" value="" style="endArrow=none;html=1;rounded=0;strokeColor=#ADADAD;" edge="1" parent="6aiq38XQWXsmM9zVfiI1-1">
          <mxGeometry width="50" height="50" relative="1" as="geometry">
            <mxPoint x="400" y="680" as="sourcePoint" />
            <mxPoint x="440" y="680" as="targetPoint" />
            <Array as="points">
              <mxPoint x="420" y="680" />
            </Array>
          </mxGeometry>
        </mxCell>
        <mxCell id="6aiq38XQWXsmM9zVfiI1-7" value="&lt;font style=&quot;font-size: 16px;&quot;&gt;&lt;b&gt;?&lt;/b&gt;&lt;/font&gt;" style="whiteSpace=wrap;html=1;aspect=fixed;" vertex="1" parent="6aiq38XQWXsmM9zVfiI1-1">
          <mxGeometry x="380" y="505" width="80" height="80" as="geometry" />
        </mxCell>
        <mxCell id="6aiq38XQWXsmM9zVfiI1-8" value="&lt;font style=&quot;font-size: 16px;&quot;&gt;&lt;b&gt;?&lt;/b&gt;&lt;/font&gt;" style="whiteSpace=wrap;html=1;aspect=fixed;" vertex="1" parent="6aiq38XQWXsmM9zVfiI1-1">
          <mxGeometry x="380" y="340" width="80" height="80" as="geometry" />
        </mxCell>
        <mxCell id="6aiq38XQWXsmM9zVfiI1-9" value="" style="endArrow=classic;html=1;rounded=0;exitX=0.5;exitY=1;exitDx=0;exitDy=0;" edge="1" parent="6aiq38XQWXsmM9zVfiI1-1" source="6aiq38XQWXsmM9zVfiI1-8">
          <mxGeometry width="50" height="50" relative="1" as="geometry">
            <mxPoint x="625" y="510" as="sourcePoint" />
            <mxPoint x="420" y="500" as="targetPoint" />
          </mxGeometry>
        </mxCell>
        <mxCell id="6aiq38XQWXsmM9zVfiI1-10" value="&lt;font style=&quot;font-size: 16px;&quot;&gt;&lt;b&gt;?&lt;/b&gt;&lt;/font&gt;" style="whiteSpace=wrap;html=1;aspect=fixed;" vertex="1" parent="6aiq38XQWXsmM9zVfiI1-1">
          <mxGeometry x="380" y="160" width="80" height="80" as="geometry" />
        </mxCell>
        <mxCell id="6aiq38XQWXsmM9zVfiI1-11" value="" style="endArrow=classic;html=1;rounded=0;exitX=0.5;exitY=1;exitDx=0;exitDy=0;" edge="1" parent="6aiq38XQWXsmM9zVfiI1-1" source="6aiq38XQWXsmM9zVfiI1-10">
          <mxGeometry width="50" height="50" relative="1" as="geometry">
            <mxPoint x="545" y="270" as="sourcePoint" />
            <mxPoint x="420" y="320" as="targetPoint" />
          </mxGeometry>
        </mxCell>
        <mxCell id="6aiq38XQWXsmM9zVfiI1-12" value="" style="endArrow=classic;html=1;rounded=0;exitX=0.5;exitY=1;exitDx=0;exitDy=0;" edge="1" parent="6aiq38XQWXsmM9zVfiI1-1" source="6aiq38XQWXsmM9zVfiI1-7">
          <mxGeometry width="50" height="50" relative="1" as="geometry">
            <mxPoint x="395" y="635" as="sourcePoint" />
            <mxPoint x="420" y="640" as="targetPoint" />
          </mxGeometry>
        </mxCell>
        <mxCell id="6aiq38XQWXsmM9zVfiI1-13" value="&lt;font style=&quot;font-size: 16px;&quot;&gt;&lt;b&gt;AUX&lt;/b&gt;&lt;/font&gt;" style="text;html=1;align=center;verticalAlign=middle;whiteSpace=wrap;rounded=0;" vertex="1" parent="6aiq38XQWXsmM9zVfiI1-1">
          <mxGeometry x="620" y="35" width="60" height="30" as="geometry" />
        </mxCell>
        <mxCell id="6aiq38XQWXsmM9zVfiI1-14" value="" style="endArrow=classic;html=1;rounded=0;exitX=0.5;exitY=1;exitDx=0;exitDy=0;" edge="1" parent="6aiq38XQWXsmM9zVfiI1-1" source="6aiq38XQWXsmM9zVfiI1-13">
          <mxGeometry width="50" height="50" relative="1" as="geometry">
            <mxPoint x="570" y="130" as="sourcePoint" />
            <mxPoint x="470" y="190" as="targetPoint" />
          </mxGeometry>
        </mxCell>
        <mxCell id="6aiq38XQWXsmM9zVfiI1-15" value="" style="shape=cross;whiteSpace=wrap;html=1;rotation=45;fillColor=#F80000;" vertex="1" parent="6aiq38XQWXsmM9zVfiI1-1">
          <mxGeometry x="380" y="160" width="80" height="80" as="geometry" />
        </mxCell>
      </root>
    </mxGraphModel>
  </diagram>
  <diagram name="Etapa 9.4" id="0BcLlGLPkDpX3_EMF3th">
    <mxGraphModel dx="1434" dy="786" grid="1" gridSize="10" guides="1" tooltips="1" connect="1" arrows="1" fold="1" page="1" pageScale="1" pageWidth="827" pageHeight="1169" math="0" shadow="0">
      <root>
        <mxCell id="y_0TXr2jYX9PWOWm40T3-0" />
        <mxCell id="y_0TXr2jYX9PWOWm40T3-1" parent="y_0TXr2jYX9PWOWm40T3-0" />
        <mxCell id="y_0TXr2jYX9PWOWm40T3-2" value="&lt;b&gt;&lt;font style=&quot;font-size: 16px;&quot;&gt;TOPO&lt;/font&gt;&lt;/b&gt;" style="text;html=1;align=center;verticalAlign=middle;whiteSpace=wrap;rounded=0;" vertex="1" parent="y_0TXr2jYX9PWOWm40T3-1">
          <mxGeometry x="360" y="200" width="120" height="40" as="geometry" />
        </mxCell>
        <mxCell id="y_0TXr2jYX9PWOWm40T3-3" value="" style="endArrow=classic;html=1;rounded=0;exitX=0.5;exitY=1;exitDx=0;exitDy=0;" edge="1" parent="y_0TXr2jYX9PWOWm40T3-1" source="y_0TXr2jYX9PWOWm40T3-2">
          <mxGeometry width="50" height="50" relative="1" as="geometry">
            <mxPoint x="160" y="430" as="sourcePoint" />
            <mxPoint x="420" y="330" as="targetPoint" />
          </mxGeometry>
        </mxCell>
        <mxCell id="y_0TXr2jYX9PWOWm40T3-4" value="" style="endArrow=none;html=1;rounded=0;" edge="1" parent="y_0TXr2jYX9PWOWm40T3-1">
          <mxGeometry width="50" height="50" relative="1" as="geometry">
            <mxPoint x="360" y="640" as="sourcePoint" />
            <mxPoint x="480" y="640" as="targetPoint" />
            <Array as="points">
              <mxPoint x="420" y="640" />
            </Array>
          </mxGeometry>
        </mxCell>
        <mxCell id="y_0TXr2jYX9PWOWm40T3-5" value="" style="endArrow=none;html=1;rounded=0;" edge="1" parent="y_0TXr2jYX9PWOWm40T3-1">
          <mxGeometry width="50" height="50" relative="1" as="geometry">
            <mxPoint x="380" y="660" as="sourcePoint" />
            <mxPoint x="460" y="660" as="targetPoint" />
            <Array as="points">
              <mxPoint x="420" y="660" />
            </Array>
          </mxGeometry>
        </mxCell>
        <mxCell id="y_0TXr2jYX9PWOWm40T3-6" value="" style="endArrow=none;html=1;rounded=0;strokeColor=#ADADAD;" edge="1" parent="y_0TXr2jYX9PWOWm40T3-1">
          <mxGeometry width="50" height="50" relative="1" as="geometry">
            <mxPoint x="400" y="680" as="sourcePoint" />
            <mxPoint x="440" y="680" as="targetPoint" />
            <Array as="points">
              <mxPoint x="420" y="680" />
            </Array>
          </mxGeometry>
        </mxCell>
        <mxCell id="y_0TXr2jYX9PWOWm40T3-7" value="&lt;font style=&quot;font-size: 16px;&quot;&gt;&lt;b&gt;?&lt;/b&gt;&lt;/font&gt;" style="whiteSpace=wrap;html=1;aspect=fixed;" vertex="1" parent="y_0TXr2jYX9PWOWm40T3-1">
          <mxGeometry x="380" y="505" width="80" height="80" as="geometry" />
        </mxCell>
        <mxCell id="y_0TXr2jYX9PWOWm40T3-8" value="&lt;font style=&quot;font-size: 16px;&quot;&gt;&lt;b&gt;?&lt;/b&gt;&lt;/font&gt;" style="whiteSpace=wrap;html=1;aspect=fixed;" vertex="1" parent="y_0TXr2jYX9PWOWm40T3-1">
          <mxGeometry x="380" y="340" width="80" height="80" as="geometry" />
        </mxCell>
        <mxCell id="y_0TXr2jYX9PWOWm40T3-9" value="" style="endArrow=classic;html=1;rounded=0;exitX=0.5;exitY=1;exitDx=0;exitDy=0;" edge="1" parent="y_0TXr2jYX9PWOWm40T3-1" source="y_0TXr2jYX9PWOWm40T3-8">
          <mxGeometry width="50" height="50" relative="1" as="geometry">
            <mxPoint x="625" y="510" as="sourcePoint" />
            <mxPoint x="420" y="500" as="targetPoint" />
          </mxGeometry>
        </mxCell>
        <mxCell id="y_0TXr2jYX9PWOWm40T3-12" value="" style="endArrow=classic;html=1;rounded=0;exitX=0.5;exitY=1;exitDx=0;exitDy=0;" edge="1" parent="y_0TXr2jYX9PWOWm40T3-1" source="y_0TXr2jYX9PWOWm40T3-7">
          <mxGeometry width="50" height="50" relative="1" as="geometry">
            <mxPoint x="395" y="635" as="sourcePoint" />
            <mxPoint x="420" y="640" as="targetPoint" />
          </mxGeometry>
        </mxCell>
      </root>
    </mxGraphModel>
  </diagram>
  <diagram name="Etapa 10.1" id="k25q4EbEo3JSgZjG-Dzp">
    <mxGraphModel dx="1434" dy="786" grid="1" gridSize="10" guides="1" tooltips="1" connect="1" arrows="1" fold="1" page="1" pageScale="1" pageWidth="827" pageHeight="1169" math="0" shadow="0">
      <root>
        <mxCell id="vVUWstUvUeyqeIla3m8O-0" />
        <mxCell id="vVUWstUvUeyqeIla3m8O-1" parent="vVUWstUvUeyqeIla3m8O-0" />
        <mxCell id="vVUWstUvUeyqeIla3m8O-2" value="&lt;b&gt;&lt;font style=&quot;font-size: 16px;&quot;&gt;TOPO&lt;/font&gt;&lt;/b&gt;" style="text;html=1;align=center;verticalAlign=middle;whiteSpace=wrap;rounded=0;" vertex="1" parent="vVUWstUvUeyqeIla3m8O-1">
          <mxGeometry x="360" y="200" width="120" height="40" as="geometry" />
        </mxCell>
        <mxCell id="vVUWstUvUeyqeIla3m8O-3" value="" style="endArrow=classic;html=1;rounded=0;exitX=0.5;exitY=1;exitDx=0;exitDy=0;" edge="1" parent="vVUWstUvUeyqeIla3m8O-1" source="vVUWstUvUeyqeIla3m8O-2">
          <mxGeometry width="50" height="50" relative="1" as="geometry">
            <mxPoint x="160" y="430" as="sourcePoint" />
            <mxPoint x="420" y="330" as="targetPoint" />
          </mxGeometry>
        </mxCell>
        <mxCell id="vVUWstUvUeyqeIla3m8O-4" value="" style="endArrow=none;html=1;rounded=0;" edge="1" parent="vVUWstUvUeyqeIla3m8O-1">
          <mxGeometry width="50" height="50" relative="1" as="geometry">
            <mxPoint x="360" y="640" as="sourcePoint" />
            <mxPoint x="480" y="640" as="targetPoint" />
            <Array as="points">
              <mxPoint x="420" y="640" />
            </Array>
          </mxGeometry>
        </mxCell>
        <mxCell id="vVUWstUvUeyqeIla3m8O-5" value="" style="endArrow=none;html=1;rounded=0;" edge="1" parent="vVUWstUvUeyqeIla3m8O-1">
          <mxGeometry width="50" height="50" relative="1" as="geometry">
            <mxPoint x="380" y="660" as="sourcePoint" />
            <mxPoint x="460" y="660" as="targetPoint" />
            <Array as="points">
              <mxPoint x="420" y="660" />
            </Array>
          </mxGeometry>
        </mxCell>
        <mxCell id="vVUWstUvUeyqeIla3m8O-6" value="" style="endArrow=none;html=1;rounded=0;strokeColor=#ADADAD;" edge="1" parent="vVUWstUvUeyqeIla3m8O-1">
          <mxGeometry width="50" height="50" relative="1" as="geometry">
            <mxPoint x="400" y="680" as="sourcePoint" />
            <mxPoint x="440" y="680" as="targetPoint" />
            <Array as="points">
              <mxPoint x="420" y="680" />
            </Array>
          </mxGeometry>
        </mxCell>
        <mxCell id="vVUWstUvUeyqeIla3m8O-7" value="&lt;font style=&quot;font-size: 16px;&quot;&gt;&lt;b&gt;?&lt;/b&gt;&lt;/font&gt;" style="whiteSpace=wrap;html=1;aspect=fixed;" vertex="1" parent="vVUWstUvUeyqeIla3m8O-1">
          <mxGeometry x="380" y="505" width="80" height="80" as="geometry" />
        </mxCell>
        <mxCell id="vVUWstUvUeyqeIla3m8O-8" value="&lt;font style=&quot;font-size: 16px;&quot;&gt;&lt;b&gt;?&lt;/b&gt;&lt;/font&gt;" style="whiteSpace=wrap;html=1;aspect=fixed;" vertex="1" parent="vVUWstUvUeyqeIla3m8O-1">
          <mxGeometry x="380" y="340" width="80" height="80" as="geometry" />
        </mxCell>
        <mxCell id="vVUWstUvUeyqeIla3m8O-9" value="" style="endArrow=classic;html=1;rounded=0;exitX=0.5;exitY=1;exitDx=0;exitDy=0;" edge="1" parent="vVUWstUvUeyqeIla3m8O-1" source="vVUWstUvUeyqeIla3m8O-8">
          <mxGeometry width="50" height="50" relative="1" as="geometry">
            <mxPoint x="625" y="510" as="sourcePoint" />
            <mxPoint x="420" y="500" as="targetPoint" />
          </mxGeometry>
        </mxCell>
        <mxCell id="vVUWstUvUeyqeIla3m8O-10" value="" style="endArrow=classic;html=1;rounded=0;exitX=0.5;exitY=1;exitDx=0;exitDy=0;" edge="1" parent="vVUWstUvUeyqeIla3m8O-1" source="vVUWstUvUeyqeIla3m8O-7">
          <mxGeometry width="50" height="50" relative="1" as="geometry">
            <mxPoint x="395" y="635" as="sourcePoint" />
            <mxPoint x="420" y="640" as="targetPoint" />
          </mxGeometry>
        </mxCell>
        <mxCell id="aOzJx5Q7ue9y5LbtQKtx-0" value="&lt;font style=&quot;font-size: 16px;&quot;&gt;&lt;b&gt;AUX&lt;/b&gt;&lt;/font&gt;" style="text;html=1;align=center;verticalAlign=middle;whiteSpace=wrap;rounded=0;" vertex="1" parent="vVUWstUvUeyqeIla3m8O-1">
          <mxGeometry x="570" y="200" width="60" height="30" as="geometry" />
        </mxCell>
        <mxCell id="aOzJx5Q7ue9y5LbtQKtx-1" value="" style="endArrow=classic;html=1;rounded=0;exitX=0.5;exitY=1;exitDx=0;exitDy=0;" edge="1" parent="vVUWstUvUeyqeIla3m8O-1" source="aOzJx5Q7ue9y5LbtQKtx-0">
          <mxGeometry width="50" height="50" relative="1" as="geometry">
            <mxPoint x="600" y="240" as="sourcePoint" />
            <mxPoint x="470" y="360" as="targetPoint" />
          </mxGeometry>
        </mxCell>
      </root>
    </mxGraphModel>
  </diagram>
  <diagram name="Etapa 10.2" id="NkJMSRuGkPMANHVT2NWY">
    <mxGraphModel dx="1434" dy="786" grid="1" gridSize="10" guides="1" tooltips="1" connect="1" arrows="1" fold="1" page="1" pageScale="1" pageWidth="827" pageHeight="1169" math="0" shadow="0">
      <root>
        <mxCell id="XN01mnnKOQxYA3TPAtgv-0" />
        <mxCell id="XN01mnnKOQxYA3TPAtgv-1" parent="XN01mnnKOQxYA3TPAtgv-0" />
        <mxCell id="XN01mnnKOQxYA3TPAtgv-2" value="&lt;b&gt;&lt;font style=&quot;font-size: 16px;&quot;&gt;TOPO&lt;/font&gt;&lt;/b&gt;" style="text;html=1;align=center;verticalAlign=middle;whiteSpace=wrap;rounded=0;" vertex="1" parent="XN01mnnKOQxYA3TPAtgv-1">
          <mxGeometry x="180" y="350" width="120" height="40" as="geometry" />
        </mxCell>
        <mxCell id="XN01mnnKOQxYA3TPAtgv-3" value="" style="endArrow=classic;html=1;rounded=0;exitX=0.5;exitY=1;exitDx=0;exitDy=0;" edge="1" parent="XN01mnnKOQxYA3TPAtgv-1" source="XN01mnnKOQxYA3TPAtgv-2">
          <mxGeometry width="50" height="50" relative="1" as="geometry">
            <mxPoint x="160" y="430" as="sourcePoint" />
            <mxPoint x="370" y="530" as="targetPoint" />
          </mxGeometry>
        </mxCell>
        <mxCell id="XN01mnnKOQxYA3TPAtgv-4" value="" style="endArrow=none;html=1;rounded=0;" edge="1" parent="XN01mnnKOQxYA3TPAtgv-1">
          <mxGeometry width="50" height="50" relative="1" as="geometry">
            <mxPoint x="360" y="640" as="sourcePoint" />
            <mxPoint x="480" y="640" as="targetPoint" />
            <Array as="points">
              <mxPoint x="420" y="640" />
            </Array>
          </mxGeometry>
        </mxCell>
        <mxCell id="XN01mnnKOQxYA3TPAtgv-5" value="" style="endArrow=none;html=1;rounded=0;" edge="1" parent="XN01mnnKOQxYA3TPAtgv-1">
          <mxGeometry width="50" height="50" relative="1" as="geometry">
            <mxPoint x="380" y="660" as="sourcePoint" />
            <mxPoint x="460" y="660" as="targetPoint" />
            <Array as="points">
              <mxPoint x="420" y="660" />
            </Array>
          </mxGeometry>
        </mxCell>
        <mxCell id="XN01mnnKOQxYA3TPAtgv-6" value="" style="endArrow=none;html=1;rounded=0;strokeColor=#ADADAD;" edge="1" parent="XN01mnnKOQxYA3TPAtgv-1">
          <mxGeometry width="50" height="50" relative="1" as="geometry">
            <mxPoint x="400" y="680" as="sourcePoint" />
            <mxPoint x="440" y="680" as="targetPoint" />
            <Array as="points">
              <mxPoint x="420" y="680" />
            </Array>
          </mxGeometry>
        </mxCell>
        <mxCell id="XN01mnnKOQxYA3TPAtgv-7" value="&lt;font style=&quot;font-size: 16px;&quot;&gt;&lt;b&gt;?&lt;/b&gt;&lt;/font&gt;" style="whiteSpace=wrap;html=1;aspect=fixed;" vertex="1" parent="XN01mnnKOQxYA3TPAtgv-1">
          <mxGeometry x="380" y="505" width="80" height="80" as="geometry" />
        </mxCell>
        <mxCell id="XN01mnnKOQxYA3TPAtgv-8" value="&lt;font style=&quot;font-size: 16px;&quot;&gt;&lt;b&gt;?&lt;/b&gt;&lt;/font&gt;" style="whiteSpace=wrap;html=1;aspect=fixed;" vertex="1" parent="XN01mnnKOQxYA3TPAtgv-1">
          <mxGeometry x="380" y="340" width="80" height="80" as="geometry" />
        </mxCell>
        <mxCell id="XN01mnnKOQxYA3TPAtgv-9" value="" style="endArrow=classic;html=1;rounded=0;exitX=0.5;exitY=1;exitDx=0;exitDy=0;" edge="1" parent="XN01mnnKOQxYA3TPAtgv-1" source="XN01mnnKOQxYA3TPAtgv-8">
          <mxGeometry width="50" height="50" relative="1" as="geometry">
            <mxPoint x="625" y="510" as="sourcePoint" />
            <mxPoint x="420" y="500" as="targetPoint" />
          </mxGeometry>
        </mxCell>
        <mxCell id="XN01mnnKOQxYA3TPAtgv-10" value="" style="endArrow=classic;html=1;rounded=0;exitX=0.5;exitY=1;exitDx=0;exitDy=0;" edge="1" parent="XN01mnnKOQxYA3TPAtgv-1" source="XN01mnnKOQxYA3TPAtgv-7">
          <mxGeometry width="50" height="50" relative="1" as="geometry">
            <mxPoint x="395" y="635" as="sourcePoint" />
            <mxPoint x="420" y="640" as="targetPoint" />
          </mxGeometry>
        </mxCell>
        <mxCell id="XN01mnnKOQxYA3TPAtgv-11" value="&lt;font style=&quot;font-size: 16px;&quot;&gt;&lt;b&gt;AUX&lt;/b&gt;&lt;/font&gt;" style="text;html=1;align=center;verticalAlign=middle;whiteSpace=wrap;rounded=0;" vertex="1" parent="XN01mnnKOQxYA3TPAtgv-1">
          <mxGeometry x="570" y="200" width="60" height="30" as="geometry" />
        </mxCell>
        <mxCell id="XN01mnnKOQxYA3TPAtgv-12" value="" style="endArrow=classic;html=1;rounded=0;exitX=0.5;exitY=1;exitDx=0;exitDy=0;" edge="1" parent="XN01mnnKOQxYA3TPAtgv-1" source="XN01mnnKOQxYA3TPAtgv-11">
          <mxGeometry width="50" height="50" relative="1" as="geometry">
            <mxPoint x="600" y="240" as="sourcePoint" />
            <mxPoint x="470" y="360" as="targetPoint" />
          </mxGeometry>
        </mxCell>
      </root>
    </mxGraphModel>
  </diagram>
  <diagram name="Etapa 10.3" id="IOOxJPHTN9KyJ3ffLmBy">
    <mxGraphModel dx="1434" dy="786" grid="1" gridSize="10" guides="1" tooltips="1" connect="1" arrows="1" fold="1" page="1" pageScale="1" pageWidth="827" pageHeight="1169" math="0" shadow="0">
      <root>
        <mxCell id="8sVvTocrkqfHBJsOx9zk-0" />
        <mxCell id="8sVvTocrkqfHBJsOx9zk-1" parent="8sVvTocrkqfHBJsOx9zk-0" />
        <mxCell id="8sVvTocrkqfHBJsOx9zk-2" value="&lt;b&gt;&lt;font style=&quot;font-size: 16px;&quot;&gt;TOPO&lt;/font&gt;&lt;/b&gt;" style="text;html=1;align=center;verticalAlign=middle;whiteSpace=wrap;rounded=0;" vertex="1" parent="8sVvTocrkqfHBJsOx9zk-1">
          <mxGeometry x="180" y="350" width="120" height="40" as="geometry" />
        </mxCell>
        <mxCell id="8sVvTocrkqfHBJsOx9zk-3" value="" style="endArrow=classic;html=1;rounded=0;exitX=0.5;exitY=1;exitDx=0;exitDy=0;" edge="1" parent="8sVvTocrkqfHBJsOx9zk-1" source="8sVvTocrkqfHBJsOx9zk-2">
          <mxGeometry width="50" height="50" relative="1" as="geometry">
            <mxPoint x="160" y="430" as="sourcePoint" />
            <mxPoint x="370" y="530" as="targetPoint" />
          </mxGeometry>
        </mxCell>
        <mxCell id="8sVvTocrkqfHBJsOx9zk-4" value="" style="endArrow=none;html=1;rounded=0;" edge="1" parent="8sVvTocrkqfHBJsOx9zk-1">
          <mxGeometry width="50" height="50" relative="1" as="geometry">
            <mxPoint x="360" y="640" as="sourcePoint" />
            <mxPoint x="480" y="640" as="targetPoint" />
            <Array as="points">
              <mxPoint x="420" y="640" />
            </Array>
          </mxGeometry>
        </mxCell>
        <mxCell id="8sVvTocrkqfHBJsOx9zk-5" value="" style="endArrow=none;html=1;rounded=0;" edge="1" parent="8sVvTocrkqfHBJsOx9zk-1">
          <mxGeometry width="50" height="50" relative="1" as="geometry">
            <mxPoint x="380" y="660" as="sourcePoint" />
            <mxPoint x="460" y="660" as="targetPoint" />
            <Array as="points">
              <mxPoint x="420" y="660" />
            </Array>
          </mxGeometry>
        </mxCell>
        <mxCell id="8sVvTocrkqfHBJsOx9zk-6" value="" style="endArrow=none;html=1;rounded=0;strokeColor=#ADADAD;" edge="1" parent="8sVvTocrkqfHBJsOx9zk-1">
          <mxGeometry width="50" height="50" relative="1" as="geometry">
            <mxPoint x="400" y="680" as="sourcePoint" />
            <mxPoint x="440" y="680" as="targetPoint" />
            <Array as="points">
              <mxPoint x="420" y="680" />
            </Array>
          </mxGeometry>
        </mxCell>
        <mxCell id="8sVvTocrkqfHBJsOx9zk-7" value="&lt;font style=&quot;font-size: 16px;&quot;&gt;&lt;b&gt;?&lt;/b&gt;&lt;/font&gt;" style="whiteSpace=wrap;html=1;aspect=fixed;" vertex="1" parent="8sVvTocrkqfHBJsOx9zk-1">
          <mxGeometry x="380" y="505" width="80" height="80" as="geometry" />
        </mxCell>
        <mxCell id="8sVvTocrkqfHBJsOx9zk-8" value="&lt;font style=&quot;font-size: 16px;&quot;&gt;&lt;b&gt;?&lt;/b&gt;&lt;/font&gt;" style="whiteSpace=wrap;html=1;aspect=fixed;" vertex="1" parent="8sVvTocrkqfHBJsOx9zk-1">
          <mxGeometry x="380" y="340" width="80" height="80" as="geometry" />
        </mxCell>
        <mxCell id="8sVvTocrkqfHBJsOx9zk-9" value="" style="endArrow=classic;html=1;rounded=0;exitX=0.5;exitY=1;exitDx=0;exitDy=0;" edge="1" parent="8sVvTocrkqfHBJsOx9zk-1" source="8sVvTocrkqfHBJsOx9zk-8">
          <mxGeometry width="50" height="50" relative="1" as="geometry">
            <mxPoint x="625" y="510" as="sourcePoint" />
            <mxPoint x="420" y="500" as="targetPoint" />
          </mxGeometry>
        </mxCell>
        <mxCell id="8sVvTocrkqfHBJsOx9zk-10" value="" style="endArrow=classic;html=1;rounded=0;exitX=0.5;exitY=1;exitDx=0;exitDy=0;" edge="1" parent="8sVvTocrkqfHBJsOx9zk-1" source="8sVvTocrkqfHBJsOx9zk-7">
          <mxGeometry width="50" height="50" relative="1" as="geometry">
            <mxPoint x="395" y="635" as="sourcePoint" />
            <mxPoint x="420" y="640" as="targetPoint" />
          </mxGeometry>
        </mxCell>
        <mxCell id="8sVvTocrkqfHBJsOx9zk-11" value="&lt;font style=&quot;font-size: 16px;&quot;&gt;&lt;b&gt;AUX&lt;/b&gt;&lt;/font&gt;" style="text;html=1;align=center;verticalAlign=middle;whiteSpace=wrap;rounded=0;" vertex="1" parent="8sVvTocrkqfHBJsOx9zk-1">
          <mxGeometry x="570" y="200" width="60" height="30" as="geometry" />
        </mxCell>
        <mxCell id="8sVvTocrkqfHBJsOx9zk-12" value="" style="endArrow=classic;html=1;rounded=0;exitX=0.5;exitY=1;exitDx=0;exitDy=0;" edge="1" parent="8sVvTocrkqfHBJsOx9zk-1" source="8sVvTocrkqfHBJsOx9zk-11">
          <mxGeometry width="50" height="50" relative="1" as="geometry">
            <mxPoint x="600" y="240" as="sourcePoint" />
            <mxPoint x="470" y="360" as="targetPoint" />
          </mxGeometry>
        </mxCell>
        <mxCell id="8sVvTocrkqfHBJsOx9zk-13" value="" style="shape=cross;whiteSpace=wrap;html=1;fillColor=#F80000;rotation=45;" vertex="1" parent="8sVvTocrkqfHBJsOx9zk-1">
          <mxGeometry x="380" y="340" width="80" height="80" as="geometry" />
        </mxCell>
      </root>
    </mxGraphModel>
  </diagram>
  <diagram name="Etapa 10.4" id="0Ze-Qdk3BnSPY4YyNH1p">
    <mxGraphModel dx="1434" dy="786" grid="1" gridSize="10" guides="1" tooltips="1" connect="1" arrows="1" fold="1" page="1" pageScale="1" pageWidth="827" pageHeight="1169" math="0" shadow="0">
      <root>
        <mxCell id="5RKdYdbXQt3JZCzTMNeX-0" />
        <mxCell id="5RKdYdbXQt3JZCzTMNeX-1" parent="5RKdYdbXQt3JZCzTMNeX-0" />
        <mxCell id="5RKdYdbXQt3JZCzTMNeX-2" value="&lt;b&gt;&lt;font style=&quot;font-size: 16px;&quot;&gt;TOPO&lt;/font&gt;&lt;/b&gt;" style="text;html=1;align=center;verticalAlign=middle;whiteSpace=wrap;rounded=0;" vertex="1" parent="5RKdYdbXQt3JZCzTMNeX-1">
          <mxGeometry x="360" y="390" width="120" height="40" as="geometry" />
        </mxCell>
        <mxCell id="5RKdYdbXQt3JZCzTMNeX-3" value="" style="endArrow=classic;html=1;rounded=0;exitX=0.5;exitY=1;exitDx=0;exitDy=0;entryX=0.5;entryY=0;entryDx=0;entryDy=0;" edge="1" parent="5RKdYdbXQt3JZCzTMNeX-1" source="5RKdYdbXQt3JZCzTMNeX-2" target="5RKdYdbXQt3JZCzTMNeX-7">
          <mxGeometry width="50" height="50" relative="1" as="geometry">
            <mxPoint x="160" y="430" as="sourcePoint" />
            <mxPoint x="420" y="490" as="targetPoint" />
          </mxGeometry>
        </mxCell>
        <mxCell id="5RKdYdbXQt3JZCzTMNeX-4" value="" style="endArrow=none;html=1;rounded=0;" edge="1" parent="5RKdYdbXQt3JZCzTMNeX-1">
          <mxGeometry width="50" height="50" relative="1" as="geometry">
            <mxPoint x="360" y="640" as="sourcePoint" />
            <mxPoint x="480" y="640" as="targetPoint" />
            <Array as="points">
              <mxPoint x="420" y="640" />
            </Array>
          </mxGeometry>
        </mxCell>
        <mxCell id="5RKdYdbXQt3JZCzTMNeX-5" value="" style="endArrow=none;html=1;rounded=0;" edge="1" parent="5RKdYdbXQt3JZCzTMNeX-1">
          <mxGeometry width="50" height="50" relative="1" as="geometry">
            <mxPoint x="380" y="660" as="sourcePoint" />
            <mxPoint x="460" y="660" as="targetPoint" />
            <Array as="points">
              <mxPoint x="420" y="660" />
            </Array>
          </mxGeometry>
        </mxCell>
        <mxCell id="5RKdYdbXQt3JZCzTMNeX-6" value="" style="endArrow=none;html=1;rounded=0;strokeColor=#ADADAD;" edge="1" parent="5RKdYdbXQt3JZCzTMNeX-1">
          <mxGeometry width="50" height="50" relative="1" as="geometry">
            <mxPoint x="400" y="680" as="sourcePoint" />
            <mxPoint x="440" y="680" as="targetPoint" />
            <Array as="points">
              <mxPoint x="420" y="680" />
            </Array>
          </mxGeometry>
        </mxCell>
        <mxCell id="5RKdYdbXQt3JZCzTMNeX-7" value="&lt;font style=&quot;font-size: 16px;&quot;&gt;&lt;b&gt;?&lt;/b&gt;&lt;/font&gt;" style="whiteSpace=wrap;html=1;aspect=fixed;" vertex="1" parent="5RKdYdbXQt3JZCzTMNeX-1">
          <mxGeometry x="380" y="505" width="80" height="80" as="geometry" />
        </mxCell>
        <mxCell id="5RKdYdbXQt3JZCzTMNeX-10" value="" style="endArrow=classic;html=1;rounded=0;exitX=0.5;exitY=1;exitDx=0;exitDy=0;" edge="1" parent="5RKdYdbXQt3JZCzTMNeX-1" source="5RKdYdbXQt3JZCzTMNeX-7">
          <mxGeometry width="50" height="50" relative="1" as="geometry">
            <mxPoint x="395" y="635" as="sourcePoint" />
            <mxPoint x="420" y="640" as="targetPoint" />
          </mxGeometry>
        </mxCell>
      </root>
    </mxGraphModel>
  </diagram>
</mxfile>
